<?xml version="1.0" standalone="no"?>
<!DOCTYPE svg PUBLIC "-//W3C//DTD SVG 20010904//EN"
 "http://www.w3.org/TR/2001/REC-SVG-20010904/DTD/svg10.dtd">
<svg version="1.0" xmlns="http://www.w3.org/2000/svg"
 width="488.000000pt" height="624.000000pt" viewBox="0 0 488.000000 624.000000"
 preserveAspectRatio="xMidYMid meet">

<g transform="translate(0.000000,624.000000) scale(0.100000,-0.100000)"
fill="#000000" stroke="none">
<path d="M0 5175 c0 -602 4 -1065 9 -1065 5 0 11 14 15 32 3 17 9 29 12 26 3
-3 16 5 29 18 30 30 38 30 50 2 6 -14 17 -22 28 -20 20 3 22 -9 5 -26 -6 -6
-11 -25 -10 -41 0 -21 -5 -32 -18 -36 -10 -3 -21 -12 -24 -20 -4 -11 2 -15 23
-15 20 0 31 -7 39 -25 7 -15 20 -25 33 -25 12 0 30 -11 41 -25 11 -14 25 -25
33 -25 7 0 15 -9 18 -21 5 -19 2 -21 -24 -17 -16 3 -32 1 -35 -3 -6 -10 -116
1 -129 13 -7 6 -3 13 10 20 19 11 19 11 0 19 -11 4 -26 8 -32 8 -17 1 -17 -26
0 -33 6 -3 -7 -2 -29 1 l-41 5 -2 -82 c-1 -54 2 -80 9 -75 5 3 10 1 10 -4 0
-6 -4 -11 -10 -11 -6 0 -10 -47 -10 -120 0 -111 1 -120 21 -130 11 -7 23 -9
26 -7 3 3 -5 33 -17 66 -22 63 -20 84 6 74 9 -3 20 0 25 8 13 20 11 29 -5 29
-24 0 -30 22 -11 36 19 14 14 64 -7 64 -7 0 -2 7 10 16 13 9 31 13 43 9 14 -5
25 -2 30 6 6 10 9 7 9 -11 0 -14 7 -35 15 -46 8 -12 11 -25 7 -30 -4 -5 2 -1
13 8 15 12 25 14 38 6 13 -7 22 -7 30 1 16 16 -11 59 -50 78 -39 18 -43 33 -8
33 16 0 25 -6 25 -16 0 -16 1 -16 68 2 19 5 23 3 20 -11 -3 -17 10 -28 45 -39
10 -3 17 -15 17 -29 0 -20 -4 -23 -30 -19 -55 8 -30 -30 26 -41 31 -6 32 -5
32 31 0 20 -6 49 -14 64 -13 24 -12 27 1 22 8 -4 15 -1 15 6 0 9 5 8 18 -3 22
-20 33 -22 43 -6 5 9 11 10 21 2 7 -6 27 -10 45 -10 26 0 32 5 37 29 7 33 -1
58 -19 58 -16 0 -45 33 -45 51 0 8 7 4 16 -10 15 -21 18 -21 26 -7 5 9 6 21 2
27 -12 21 -22 79 -13 79 5 0 9 -11 9 -24 0 -14 5 -28 10 -31 6 -4 9 -3 8 2 -3
11 22 85 32 97 5 4 5 -9 0 -30 -18 -78 -20 -103 -10 -109 5 -3 10 -17 10 -30
0 -12 7 -26 16 -29 9 -4 14 -9 11 -13 -10 -9 25 -62 45 -69 22 -7 23 -30 2
-69 -9 -16 -17 -46 -17 -65 -1 -35 -1 -35 44 -35 24 0 69 4 100 8 46 7 59 5
73 -8 15 -15 16 -15 17 2 2 32 4 37 22 71 10 17 23 32 30 32 9 0 9 2 -1 8 -7
5 -10 16 -6 26 5 13 13 16 35 11 18 -4 29 -2 29 4 0 6 -7 8 -15 5 -23 -9 -19
29 5 46 29 21 25 41 -15 73 -39 31 -44 47 -16 54 11 3 23 17 27 31 7 26 7 26
17 -11 7 -30 13 -37 26 -31 9 3 35 11 59 16 47 11 54 29 22 63 -19 20 -19 21
0 21 10 0 16 -4 14 -8 -3 -4 -1 -8 4 -8 6 0 13 -15 16 -34 4 -20 14 -36 24
-38 21 -6 44 -72 30 -86 -11 -11 1 -44 13 -36 5 3 9 -2 9 -10 0 -8 5 -18 11
-22 8 -4 9 4 4 27 -5 19 -9 48 -10 64 -1 17 -5 46 -8 65 -11 59 -15 83 -22
163 -5 55 -13 85 -28 103 l-20 27 21 -12 c21 -11 22 -10 22 39 0 50 15 69 23
28 3 -22 4 -21 11 4 7 22 3 34 -18 59 -14 17 -26 40 -26 51 0 12 -3 18 -7 15
-4 -4 -6 -30 -4 -57 2 -53 -3 -60 -26 -32 -13 16 -14 15 -10 -6 3 -13 1 -20
-5 -16 -5 3 -7 17 -4 30 4 14 2 24 -4 24 -5 0 -10 5 -10 11 0 5 5 7 12 3 8 -5
9 3 5 29 -5 30 -2 37 14 42 10 4 19 13 19 21 0 19 39 18 61 -2 17 -16 18 -15
10 14 -5 17 -7 33 -3 36 3 3 0 6 -6 6 -7 0 -12 -6 -12 -12 0 -9 -4 -8 -10 2
-7 10 -5 18 4 25 14 10 15 62 3 81 -3 6 -5 34 -3 63 2 46 0 50 -11 35 -11 -15
-18 -52 -14 -76 1 -11 -27 -10 -49 2 -13 7 -19 6 -24 -5 -5 -15 -27 -21 -25
-7 3 18 -2 22 -15 10 -8 -7 -12 -16 -10 -19 2 -3 -4 -6 -12 -6 -8 0 -17 11
-20 24 -8 29 -23 29 -58 2 -15 -12 -30 -19 -33 -16 -10 11 7 57 22 57 8 0 15
8 16 18 0 9 3 12 5 5 3 -7 12 -9 20 -6 8 3 14 -1 14 -8 0 -9 3 -10 8 -4 4 6
19 18 35 28 31 20 34 32 11 41 -12 5 -15 2 -10 -9 3 -9 2 -13 -4 -10 -6 3 -10
24 -10 46 0 22 -5 49 -10 60 -6 11 -8 24 -5 30 9 14 35 -9 35 -31 0 -11 13
-25 30 -33 28 -15 31 -14 45 6 17 25 20 47 5 47 -5 0 -15 -9 -22 -20 -7 -11
-16 -20 -20 -20 -15 0 -8 19 17 46 14 15 25 36 25 47 0 13 5 17 16 13 8 -3 12
-2 9 4 -4 6 9 10 30 10 29 0 38 -5 42 -20 4 -17 8 -18 20 -8 11 8 23 9 46 1
18 -6 52 -11 75 -12 24 0 47 -3 52 -6 4 -3 11 3 14 12 5 11 10 13 14 7 4 -6
13 -13 21 -16 26 -8 41 -84 29 -150 -12 -70 -26 -65 -35 11 -3 29 -9 47 -13
41 -4 -7 -11 -10 -16 -8 -19 7 -14 -52 7 -94 l21 -43 -27 25 -27 25 6 -70 c5
-67 5 -68 -5 -20 -6 27 -16 53 -22 57 -9 6 -9 8 1 8 6 0 12 11 12 25 0 31 -23
33 -43 5 -21 -30 -10 -107 21 -148 21 -28 27 -31 34 -17 5 8 13 13 19 10 5 -4
9 2 10 12 0 14 2 14 9 -4 5 -13 16 -23 24 -23 15 0 50 -29 43 -36 -2 -3 -23 5
-45 18 -42 22 -61 20 -46 -3 7 -11 15 -119 9 -119 -1 0 -15 18 -31 41 -18 27
-27 52 -26 72 2 39 -24 79 -37 58 -6 -9 -11 10 -16 55 -8 94 -14 116 -26 108
-6 -3 -10 0 -8 7 5 38 -2 59 -19 59 -11 0 -23 10 -29 22 -10 22 -11 21 -31
-17 -16 -29 -21 -35 -22 -20 -1 11 -4 14 -7 7 -2 -6 -9 -10 -14 -6 -23 14 -5
-23 21 -44 l29 -22 16 22 c17 23 17 23 12 1 -3 -15 1 -23 13 -26 12 -3 20 -19
25 -48 7 -40 39 -117 54 -129 3 -3 7 -18 8 -35 0 -16 3 -42 6 -58 2 -15 0 -30
-4 -33 -5 -3 -9 2 -9 11 0 11 -5 15 -14 12 -10 -4 -15 4 -18 28 -3 26 -1 32 8
24 21 -17 -28 100 -52 127 -13 14 -24 30 -25 37 -1 16 -18 -24 -18 -43 0 -9 3
-7 8 5 6 16 11 8 21 -35 8 -30 13 -61 11 -69 -3 -16 30 -81 41 -81 5 0 11 1
14 3 5 1 33 -66 34 -81 0 -5 -51 52 -75 83 -21 26 -43 97 -37 118 1 4 -2 7 -7
7 -13 0 -22 -28 -11 -35 5 -3 12 -30 15 -60 4 -31 11 -58 16 -61 12 -7 11 -51
-1 -59 -13 -8 -13 -35 -1 -35 5 0 12 8 14 18 4 16 5 16 6 0 1 -12 9 -18 26
-18 20 0 27 -6 32 -30 3 -16 11 -30 18 -30 8 0 15 -6 18 -12 3 -10 7 -10 17
-1 18 17 66 -2 66 -27 0 -12 -5 -19 -12 -16 -7 3 -15 2 -19 -2 -3 -3 -21 -5
-40 -4 -30 3 -34 0 -40 -29 l-7 -33 -22 29 c-11 16 -21 32 -22 35 0 3 -4 13
-8 22 -13 29 -22 12 -21 -39 l0 -48 47 0 c25 0 44 -3 41 -7 -2 -5 -24 -8 -48
-8 l-44 0 -3 -97 c-2 -54 1 -102 6 -108 5 -6 7 -3 3 8 -7 20 -4 20 45 7 31 -9
40 -8 57 7 12 10 21 24 22 33 0 9 2 10 5 3 3 -7 1 -21 -5 -32 -14 -25 -4 -51
19 -51 11 0 20 -9 22 -22 2 -12 9 -23 16 -26 7 -2 10 2 6 12 -5 14 -2 15 20 6
18 -6 25 -6 21 0 -3 6 1 10 10 10 9 0 15 -6 14 -12 -1 -7 0 -22 1 -33 4 -40
19 36 26 134 9 105 9 115 0 183 -7 52 3 67 25 36 8 -11 23 -29 33 -39 28 -26
234 -163 276 -183 40 -19 117 -64 146 -86 26 -20 66 -88 62 -109 -1 -9 1 -21
5 -28 13 -20 -34 -43 -90 -43 -28 0 -54 -4 -57 -9 -3 -5 16 -16 42 -25 26 -10
56 -21 67 -26 11 -5 36 -11 57 -15 20 -3 39 -12 42 -20 5 -13 -30 -48 -57 -58
-19 -6 8 -33 59 -58 41 -19 45 -24 42 -53 -3 -28 -6 -31 -43 -34 -22 -2 -42
-8 -46 -13 -3 -6 -30 -14 -60 -19 -57 -9 -123 -28 -101 -29 6 -1 12 -8 12 -16
0 -12 14 -14 83 -10 45 3 99 10 120 16 44 12 57 6 57 -26 0 -25 -10 -29 -98
-41 -34 -4 -62 -15 -75 -28 -19 -18 -32 -21 -87 -18 -76 4 -140 -12 -140 -34
0 -10 6 -14 15 -10 8 3 86 6 173 7 178 2 226 -9 238 -55 3 -14 4 -32 1 -40 -4
-9 3 -16 16 -20 51 -14 65 -3 43 33 -7 11 -5 13 9 7 11 -4 43 -4 72 0 l53 6 0
53 c0 46 4 56 28 74 l27 21 -45 40 c-25 22 -49 40 -53 40 -12 0 -37 27 -37 39
0 12 36 24 49 17 9 -6 76 63 69 70 -3 2 -60 6 -128 9 -67 2 -125 6 -127 8 -2
2 -8 114 -13 248 -6 134 -12 255 -14 269 -3 23 -49 125 -80 179 -8 14 -13 37
-11 53 2 15 -1 28 -6 28 -5 0 -9 6 -9 13 0 6 -9 23 -19 37 -19 24 -19 24 -5
-45 8 -39 17 -101 20 -138 2 -38 9 -77 14 -87 15 -28 12 -60 -5 -60 -9 0 -25
19 -36 43 -33 71 -62 111 -109 153 -31 27 -39 31 -27 14 9 -14 30 -50 46 -81
26 -50 27 -56 10 -52 -17 5 -23 14 -21 33 0 3 -18 16 -40 29 -32 18 -40 20
-35 7 9 -24 -3 -20 -58 19 -61 44 -137 116 -173 164 -34 45 -73 81 -89 81 -24
0 -13 -20 42 -83 95 -106 137 -146 215 -199 109 -74 199 -147 212 -171 11 -21
11 -21 -18 -3 -16 10 -45 30 -64 45 -19 14 -51 37 -70 50 -19 13 -63 44 -98
68 -35 24 -74 48 -86 53 -13 5 -56 29 -95 54 -39 25 -73 46 -75 46 -1 0 0 -20
4 -45 4 -25 3 -45 -1 -45 -10 0 -19 31 -22 77 -1 18 -6 28 -12 25 -5 -3 -2 5
7 20 15 23 15 28 2 47 -9 12 -12 21 -7 20 21 -4 33 2 33 17 0 10 -6 14 -14 11
-9 -4 -13 0 -11 11 2 9 4 24 5 32 1 10 3 11 7 3 9 -25 20 -13 28 30 4 23 7 52
7 65 0 26 18 31 18 5 1 -17 1 -17 11 -1 7 12 6 24 -1 39 -7 11 -10 22 -8 23 2
1 21 16 43 33 22 16 46 28 53 26 6 -3 12 3 12 12 0 9 4 14 9 11 11 -7 8 21 -4
31 -4 4 -5 2 -1 -4 9 -16 -10 -17 -20 -2 -5 8 -8 8 -13 0 -17 -28 -78 60 -65
94 11 27 34 17 34 -14 0 -16 7 -34 15 -41 12 -10 15 -10 15 2 0 7 9 14 20 14
11 0 20 -4 20 -9 0 -4 5 -5 10 -2 6 4 10 12 9 18 -5 44 10 47 57 12 29 -22 43
-25 116 -25 46 0 89 -4 97 -9 25 -16 290 94 334 139 16 16 33 28 37 25 13 -8
25 17 22 45 -2 22 -1 23 10 10 7 -9 22 -14 32 -12 11 2 23 -3 28 -12 6 -11 16
-15 29 -11 14 5 24 -2 39 -27 11 -18 20 -42 20 -53 0 -11 9 -25 20 -30 33 -17
212 -149 241 -177 53 -54 163 -31 254 52 21 20 44 29 78 33 70 7 81 24 21 32
-79 10 -164 37 -174 56 -7 12 -5 26 5 45 11 21 11 30 3 36 -9 5 -8 12 4 25 9
10 16 22 15 28 -2 8 73 56 113 71 51 19 54 24 12 20 -23 -2 -40 0 -36 5 3 5 1
9 -5 9 -5 0 -13 -5 -17 -11 -3 -6 -19 -9 -34 -6 -38 8 -74 -31 -73 -78 2 -54
-27 -64 -75 -28 -55 43 -89 63 -107 63 -9 0 -18 7 -21 15 -4 9 -14 13 -23 11
-11 -4 -21 6 -34 34 -10 22 -28 42 -40 46 -12 4 -32 17 -44 29 -25 24 -83 136
-83 158 0 33 130 56 163 29 8 -7 33 -9 65 -5 l51 6 16 -57 c9 -32 18 -56 20
-54 1 2 -1 27 -4 56 -5 34 -4 52 3 53 54 3 80 9 95 23 22 20 38 21 21 1 -16
-19 -7 -19 30 0 l29 15 11 -40 c6 -22 8 -45 5 -50 -3 -6 1 -7 9 -4 11 4 16 20
16 49 0 24 3 50 6 59 9 23 40 20 58 -6 16 -22 16 -22 16 9 0 17 7 37 16 44 14
11 18 10 33 -9 14 -20 23 -22 59 -16 40 6 42 5 63 -30 11 -20 23 -36 25 -36 3
0 9 10 15 23 8 19 9 18 4 -8 -6 -34 -6 -127 0 -134 3 -2 12 2 21 10 9 7 30 13
47 14 24 0 36 7 52 32 13 21 26 30 37 27 9 -3 19 0 23 6 3 5 14 10 25 10 10 0
40 10 67 23 76 35 77 36 57 58 -24 27 -11 34 24 13 28 -16 32 -16 71 0 24 9
52 13 67 10 28 -7 64 -49 64 -73 -1 -9 -7 -2 -14 15 -8 17 -26 36 -44 43 -26
11 -35 10 -68 -9 -89 -49 -132 -76 -162 -102 -17 -14 -37 -28 -43 -30 -7 -2
-13 -13 -14 -24 -1 -15 -22 -58 -43 -84 -2 -3 -10 4 -18 14 -12 17 -14 17 -20
3 -5 -15 -8 -15 -30 0 -13 8 -24 21 -24 29 0 19 -11 22 -47 12 -31 -8 -33 -11
-33 -56 0 -50 -18 -123 -44 -184 -17 -40 -21 -88 -7 -88 9 0 88 82 112 117 16
23 87 59 96 49 3 -3 -11 -30 -31 -59 -30 -44 -37 -62 -34 -93 3 -36 6 -40 39
-48 30 -7 46 -4 93 18 32 15 64 25 71 22 8 -3 24 -23 37 -45 23 -41 42 -52
146 -87 23 -8 47 -12 52 -9 14 9 111 -71 136 -112 21 -33 22 -33 28 -11 3 13
6 39 6 59 0 20 10 58 21 85 24 54 98 168 105 161 4 -4 -63 -173 -122 -305 -27
-61 -27 -63 -11 -97 20 -42 32 -44 41 -9 4 15 9 25 11 22 2 -2 -1 -23 -7 -46
-7 -30 -8 -46 0 -54 7 -7 14 8 21 48 6 33 32 121 56 197 45 138 54 202 35 251
-14 37 -26 32 -59 -20 -16 -25 -32 -41 -35 -35 -4 6 9 32 29 60 32 44 35 54
27 83 -7 28 -13 34 -40 36 -18 2 -32 7 -32 11 0 13 82 30 113 24 15 -3 34 0
41 7 11 8 20 9 35 0 17 -9 21 -20 21 -60 0 -28 3 -50 7 -50 4 0 41 34 84 75
50 49 82 73 92 69 8 -3 18 -1 22 5 3 6 33 11 67 11 75 0 114 -21 122 -65 7
-36 63 -126 120 -194 43 -52 76 -112 76 -140 0 -26 -93 72 -143 151 -20 31
-44 59 -54 62 -105 32 -134 35 -169 19 -32 -16 -49 -38 -20 -27 8 3 52 -13 99
-35 73 -36 86 -46 102 -81 11 -24 49 -68 92 -106 40 -36 73 -70 73 -75 0 -14
-44 -11 -66 6 -25 19 -31 19 -38 -1 -8 -21 11 -44 35 -44 11 0 19 -5 19 -12 0
-6 12 -31 26 -56 l26 -44 19 31 c15 25 18 50 18 156 -1 68 -4 123 -9 120 -4
-2 -20 18 -35 46 -15 28 -53 87 -85 132 -37 51 -58 90 -57 105 1 15 -6 29 -17
36 -11 6 -46 30 -79 54 l-59 42 49 0 c27 0 55 6 61 12 10 10 17 10 32 0 10 -6
22 -8 25 -3 3 5 -1 12 -7 14 -9 4 -9 6 2 7 8 1 24 4 35 7 11 3 36 7 55 10 l36
5 2 -146 c2 -100 8 -157 17 -181 8 -19 15 -50 15 -70 0 -19 5 -35 10 -35 14 0
12 46 -3 100 -14 48 -12 94 4 85 5 -4 9 135 9 353 l0 360 -22 5 c-25 7 -54 -6
-67 -32 -7 -13 -5 -33 9 -70 11 -28 17 -51 12 -52 -26 -3 -99 4 -148 16 -57
13 -60 13 -123 -17 -36 -17 -70 -37 -76 -44 -8 -11 -18 -6 -52 22 -47 39 -50
70 -4 59 l25 -6 -19 21 c-21 23 -77 50 -103 50 -12 0 -11 -5 6 -21 12 -11 27
-17 32 -14 6 3 10 -3 10 -15 0 -19 -1 -20 -36 -5 -20 8 -39 15 -41 15 -9 0 7
51 24 76 15 23 37 31 46 17 2 -5 2 -3 1 4 -3 13 20 33 111 98 31 22 69 50 83
62 l27 21 83 -86 c45 -48 85 -98 88 -112 10 -43 12 -46 13 -12 1 17 6 32 11
32 12 0 13 33 1 46 -5 5 -14 25 -20 45 -14 42 -53 88 -98 115 -42 24 -42 34 2
34 26 0 33 3 29 15 -4 8 -12 15 -19 15 -7 0 -19 7 -26 17 -13 15 -12 15 8 5
26 -14 36 -15 29 -3 -4 5 -1 11 4 13 21 7 -21 102 -61 138 -28 25 -36 39 -30
49 8 12 16 12 58 -4 26 -10 54 -22 60 -28 17 -12 143 -22 143 -11 -1 5 -19 21
-41 37 -38 26 -43 27 -177 27 l-137 0 0 -67 c1 -71 14 -90 33 -48 14 30 27 26
36 -11 4 -15 18 -43 32 -63 l24 -36 -37 -8 c-21 -4 -55 -10 -76 -13 -28 -5
-52 -21 -91 -60 -29 -30 -56 -54 -60 -54 -3 0 -6 14 -6 30 0 17 -4 30 -9 30
-5 0 -18 3 -28 6 -15 6 -15 4 4 -14 30 -29 39 -79 19 -101 -9 -10 -16 -21 -16
-26 0 -13 -78 -94 -84 -87 -3 3 -6 20 -6 39 0 19 -7 45 -16 58 -17 25 -12 101
5 91 5 -3 6 -18 3 -32 -3 -16 -1 -25 5 -21 8 5 9 26 4 77 -1 13 -2 13 -11 0
-13 -20 -13 -16 10 70 11 41 20 83 20 93 0 10 6 25 14 32 11 12 15 10 24 -11
15 -31 54 -32 70 -1 6 12 15 45 20 73 l9 52 -48 0 c-42 0 -48 -3 -54 -25 -7
-29 -30 -25 -29 5 1 22 -2 22 -168 21 -92 -1 -168 -3 -168 -6 0 -3 14 -18 31
-34 17 -16 29 -22 25 -14 -3 8 -1 15 3 15 5 0 8 -18 8 -40 -1 -25 -7 -40 -15
-40 -7 0 -10 -5 -7 -10 8 -13 -17 -38 -33 -32 -6 2 -12 10 -12 18 0 8 -9 14
-19 14 -13 0 -21 9 -26 30 -9 39 -26 29 -18 -10 3 -19 1 -30 -6 -30 -6 0 -11
17 -11 39 0 21 -3 53 -6 70 l-7 31 -83 0 -84 0 35 -46 c19 -25 35 -50 35 -55
0 -5 13 -9 29 -9 28 0 29 -1 28 -49 -1 -27 -5 -47 -9 -45 -15 9 -30 -7 -19
-20 5 -6 13 -39 16 -71 9 -82 23 -142 41 -174 15 -26 15 -26 10 14 -3 22 -6
78 -8 124 l-3 84 85 44 c47 24 87 48 88 54 2 5 11 9 20 9 15 0 15 -2 2 -10
-12 -7 -11 -10 7 -17 12 -4 40 -29 62 -54 35 -40 40 -53 38 -87 -1 -22 -4 -38
-6 -36 -6 6 -61 -78 -61 -93 0 -7 -4 -13 -10 -13 -5 0 -10 12 -10 28 -1 25 -2
26 -15 9 -13 -18 -14 -18 -32 0 -10 10 -30 18 -43 18 -21 0 -25 -5 -26 -30 -2
-60 -26 -181 -44 -220 -9 -22 -21 -50 -25 -63 -7 -23 -7 -23 -32 10 -16 20
-23 25 -19 13 6 -19 6 -19 -12 1 -9 11 -23 19 -30 16 -7 -2 -12 5 -12 17 0 12
-6 21 -15 21 -9 0 -18 7 -21 15 -8 20 -24 9 -24 -17 0 -19 -1 -20 -17 -6 -25
22 -83 13 -83 -13 0 -13 7 -19 24 -19 28 0 57 -35 49 -56 -8 -23 -56 13 -175
128 -97 96 -140 148 -121 148 4 0 9 13 10 30 2 27 38 110 48 110 5 0 -10 -45
-27 -77 -9 -19 -7 -25 13 -42 13 -11 27 -20 32 -21 23 -1 21 -12 25 125 l2 70
43 -47 c70 -77 89 -107 99 -155 7 -31 13 -41 18 -32 5 7 6 25 3 40 -3 15 0 30
6 33 11 7 5 58 -11 89 -5 9 -5 17 0 17 4 0 19 -34 31 -76 13 -42 34 -97 47
-122 13 -25 22 -54 19 -63 -5 -13 0 -20 17 -23 91 -19 101 -12 62 39 -33 43
-22 46 17 4 16 -18 32 -29 35 -26 8 8 -6 68 -15 63 -4 -3 -22 23 -39 57 -18
34 -57 95 -87 136 -38 53 -51 78 -44 87 16 20 39 124 33 149 -3 13 -15 27 -25
30 -10 4 -19 12 -19 19 0 8 -6 19 -14 25 -11 9 -15 7 -20 -13 -7 -30 2 -58 17
-49 6 3 7 1 3 -6 -8 -12 10 -41 25 -41 4 0 10 10 12 23 2 12 5 3 6 -20 0 -24
-3 -43 -9 -43 -5 0 -10 -14 -10 -31 0 -17 -9 -42 -20 -56 -11 -14 -20 -32 -20
-39 0 -27 -28 -14 -44 20 -16 35 -23 92 -8 68 15 -22 33 33 22 64 -6 14 -10
36 -10 49 0 15 -7 26 -20 30 -11 3 -20 9 -20 13 0 13 41 33 52 26 7 -4 8 -3 4
4 -5 8 -54 12 -154 12 l-147 0 -22 -83 c-31 -116 -36 -154 -22 -159 7 -2 -1
-19 -21 -41 l-33 -38 -23 35 c-28 41 -29 46 -10 46 8 0 17 8 20 18 2 9 7 27
11 38 9 33 -37 41 -83 13 l-37 -21 28 29 c15 16 27 34 27 41 0 6 10 11 22 9
15 -1 23 5 29 26 4 16 3 27 -2 27 -6 0 1 11 15 24 15 13 26 26 26 30 0 3 -20
6 -45 6 -36 0 -45 -3 -45 -17 -1 -17 -1 -17 -14 0 -12 16 -99 17 -1565 17
l-1551 0 0 -1065z m4225 1015 l28 -29 -35 -39 -35 -39 -43 54 c-24 31 -39 58
-34 63 5 5 25 10 44 13 19 2 38 5 41 5 3 1 18 -11 34 -28z m-2492 3 c4 -2 7
-9 7 -14 0 -6 -4 -8 -8 -5 -4 2 -35 6 -69 8 -50 2 -60 5 -51 16 9 10 25 12 62
7 28 -4 54 -9 59 -12z m1277 -18 c19 -23 5 -29 -24 -10 -28 19 -66 12 -66 -11
0 -16 -16 -10 -55 20 -19 14 -14 15 56 16 57 0 80 -4 89 -15z m1280 -15 c0 -5
-5 -10 -11 -10 -5 0 -7 5 -4 10 3 6 8 10 11 10 2 0 4 -4 4 -10z m-2724 -11 c3
-6 14 -9 24 -6 18 5 28 -7 67 -80 30 -54 15 -55 -27 -3 -17 22 -38 40 -46 40
-21 0 -53 31 -47 46 6 17 19 18 29 3z m2542 -28 c41 -50 41 -66 2 -46 -38 19
-50 19 -50 -2 0 -28 -21 0 -25 33 -3 31 9 54 30 54 6 0 26 -18 43 -39z m-3748
10 c0 -6 -4 -13 -10 -16 -5 -3 -10 1 -10 9 0 9 5 16 10 16 6 0 10 -4 10 -9z
m1339 -12 c22 -8 31 -17 30 -32 0 -12 -3 -16 -6 -9 -2 6 -12 12 -22 12 -9 0
-24 9 -34 20 -19 23 -13 25 32 9z m791 -9 c-8 -5 -19 -10 -25 -10 -5 0 -3 5 5
10 8 5 20 10 25 10 6 0 3 -5 -5 -10z m-712 -17 c2 -8 -5 -13 -17 -13 -12 0
-21 6 -21 16 0 18 31 15 38 -3z m666 -31 c-7 -2 -15 -10 -18 -18 -4 -11 0 -15
17 -12 17 2 22 9 20 28 -1 19 4 26 17 27 13 1 17 -3 13 -13 -3 -8 1 -14 8 -14
8 0 5 -6 -7 -16 -18 -15 -18 -15 8 -11 16 2 25 0 22 -5 -4 -6 -17 -8 -31 -5
-13 2 -30 -1 -36 -7 -7 -6 -24 -17 -37 -25 l-25 -14 20 23 c17 20 17 22 3 17
-10 -3 -20 -2 -23 3 -4 6 -1 10 5 10 7 0 9 7 6 16 -4 10 -2 13 6 8 7 -5 9 0 6
14 -4 12 -2 20 2 17 5 -3 12 0 16 7 5 8 10 6 14 -8 5 -12 3 -20 -6 -22z m136
22 c0 -8 -5 -12 -10 -9 -6 4 -8 11 -5 16 9 14 15 11 15 -7z m40 6 c0 -5 -5
-10 -11 -10 -5 0 -7 5 -4 10 3 6 8 10 11 10 2 0 4 -4 4 -10z m-2112 -37 c-16
-20 -26 -16 -24 11 1 19 4 21 18 12 13 -7 14 -14 6 -23z m2186 17 c-12 -5 -29
-19 -38 -31 -8 -13 -18 -20 -22 -17 -3 3 -18 2 -34 -2 -24 -7 -28 -6 -23 8 10
26 25 32 47 20 12 -6 18 -7 14 -3 -11 12 23 34 52 34 24 0 24 -1 4 -9z m-439
-27 c3 -10 -1 -13 -12 -11 -9 2 -18 8 -20 14 -5 16 25 13 32 -3z m118 -3 c-10
-11 -18 -20 -19 -20 -1 0 0 9 3 20 3 11 12 20 19 20 11 0 10 -5 -3 -20z m687
0 c0 -5 -7 -10 -16 -10 -8 0 -12 5 -9 10 3 6 10 10 16 10 5 0 9 -4 9 -10z
m-2324 -27 c-10 -10 -19 5 -10 18 6 11 8 11 12 0 2 -7 1 -15 -2 -18z m1604 23
c0 -2 -7 -6 -15 -10 -8 -3 -15 -1 -15 4 0 6 7 10 15 10 8 0 15 -2 15 -4z m227
-2 c-3 -3 -12 -4 -19 -1 -8 3 -5 6 6 6 11 1 17 -2 13 -5z m-1972 -14 c3 -5 2
-10 -4 -10 -5 0 -13 5 -16 10 -3 6 -2 10 4 10 5 0 13 -4 16 -10z m3540 -10 c3
-5 1 -10 -4 -10 -6 0 -11 5 -11 10 0 6 2 10 4 10 3 0 8 -4 11 -10z m-3355 -34
c0 -3 -4 -8 -10 -11 -5 -3 -10 -1 -10 4 0 6 5 11 10 11 6 0 10 -2 10 -4z
m-210 -10 c0 -3 -4 -8 -10 -11 -5 -3 -10 -1 -10 4 0 6 5 11 10 11 6 0 10 -2
10 -4z m129 -22 c3 -15 1 -16 -12 -6 -12 10 -16 10 -20 0 -2 -7 -8 -10 -12 -6
-10 10 15 40 29 35 6 -2 13 -12 15 -23z m1846 16 c-3 -5 -14 -10 -23 -10 -15
0 -15 2 -2 10 20 13 33 13 25 0z m-337 -30 c-7 -10 -14 -17 -17 -15 -4 4 18
35 25 35 2 0 -1 -9 -8 -20z m-255 -51 c56 -29 117 -59 135 -68 33 -16 39 -37
26 -88 -5 -20 -12 -17 -104 46 -92 62 -196 161 -170 161 6 0 57 -23 113 -51z
m142 15 c36 -20 67 -39 69 -42 2 -4 -3 -23 -10 -42 -13 -33 -14 -34 -9 -5 5
28 2 32 -30 44 -37 13 -95 57 -95 72 0 13 4 12 75 -27z m-1975 -1 c0 -34 -13
-43 -39 -30 -30 15 -29 30 1 39 36 10 38 9 38 -9z m248 -49 c0 -18 -3 -22 -9
-13 -11 18 -11 39 0 39 5 0 9 -12 9 -26z m1577 -55 c70 -36 161 -103 169 -125
3 -9 6 -29 6 -45 l0 -29 -42 39 c-24 21 -73 66 -110 100 -37 33 -72 61 -77 61
-5 0 -11 7 -15 15 -8 21 2 19 69 -16z m1393 1 c0 -16 -4 -32 -9 -35 -10 -7
-13 48 -2 58 10 10 10 10 11 -23z m-1917 -7 c-8 -15 -10 -15 -11 -2 0 17 10
32 18 25 2 -3 -1 -13 -7 -23z m2799 -8 c0 -13 -7 -30 -15 -39 -8 -8 -15 -22
-15 -31 0 -19 -28 -50 -37 -42 -3 4 4 22 16 42 11 20 21 49 21 64 0 15 3 31 6
34 12 11 24 -3 24 -28z m-50 11 c0 -8 -7 -16 -15 -20 -13 -4 -14 -2 -5 14 13
23 20 26 20 6z m-2659 -46 c5 0 9 4 9 9 0 5 8 11 18 13 16 5 18 0 12 -36 -3
-23 -12 -50 -19 -61 -11 -19 -12 -19 -6 3 4 13 2 22 -5 22 -6 0 -9 -4 -6 -9 3
-4 -1 -17 -9 -27 -13 -18 -14 -18 -8 5 5 18 3 22 -7 16 -9 -5 -11 -4 -6 3 4 6
-2 20 -14 32 -26 26 -25 39 3 49 16 6 23 5 25 -5 2 -8 8 -14 13 -14z m1610
-30 c10 -6 19 -20 19 -31 0 -41 52 -111 76 -102 7 2 18 20 24 39 6 19 15 34
19 34 5 0 30 -19 57 -42 26 -24 45 -37 40 -30 -4 6 -2 12 3 12 6 0 11 -4 11
-10 0 -5 5 -10 12 -10 6 0 -3 14 -20 31 -18 17 -32 39 -32 49 0 10 -7 20 -15
24 -8 3 -14 13 -14 23 1 16 2 16 6 2 5 -22 43 -33 43 -13 0 22 20 17 46 -11
14 -16 21 -32 17 -42 -5 -12 -3 -14 7 -8 10 6 12 4 7 -8 -4 -10 4 -28 19 -47
14 -16 22 -35 18 -41 -5 -8 -3 -9 6 -4 8 5 11 3 8 -6 -6 -17 37 -61 81 -83 22
-12 30 -21 23 -28 -21 -21 -143 51 -218 129 -40 40 -43 42 -75 31 -19 -6 -40
-13 -48 -15 -7 -2 -11 -9 -8 -16 20 -55 20 -57 -13 -50 -30 5 -121 -9 -165
-27 -11 -5 -47 -11 -79 -15 -33 -3 -74 -14 -91 -25 -20 -12 -56 -21 -96 -24
-69 -4 -136 -28 -146 -51 -4 -11 -22 -15 -67 -15 -59 0 -63 1 -60 23 1 12 3
28 3 35 1 7 9 16 19 19 57 22 162 100 162 122 0 4 36 24 80 45 43 20 85 45 93
56 8 12 39 26 78 36 35 9 75 25 88 35 27 21 53 24 82 9z m998 -47 c-20 -58
-49 -104 -34 -53 12 38 44 110 49 110 3 0 -4 -26 -15 -57z m101 -10 c0 -6 -4
-15 -10 -18 -5 -3 -10 0 -10 7 0 9 -3 9 -10 -2 -5 -8 -10 -11 -10 -6 0 5 -6 3
-14 -3 -12 -10 -20 -27 -56 -125 -6 -16 -13 -27 -15 -24 -11 10 47 154 67 170
26 19 58 20 58 1z m-145 -10 c-17 -41 -35 -108 -35 -130 0 -13 -4 -21 -10 -18
-21 13 19 165 43 165 5 0 6 -8 2 -17z m-572 -61 c3 -15 9 -35 12 -44 4 -10 3
-18 -3 -18 -10 0 -23 26 -28 58 -1 8 -10 22 -18 31 -23 26 -19 34 8 16 13 -9
26 -28 29 -43z m-1598 28 c3 -5 -1 -10 -9 -10 -9 0 -16 5 -16 10 0 6 4 10 9
10 6 0 13 -4 16 -10z m130 -21 c68 -12 102 -30 114 -62 5 -12 8 -23 7 -24 -4
-5 -180 58 -207 74 -37 22 -37 37 -1 29 15 -3 54 -11 87 -17z m1979 -6 c-14
-58 -22 -59 -68 -5 -17 19 -17 22 -3 16 9 -3 17 -10 17 -14 0 -4 8 -11 17 -14
10 -4 14 -4 11 0 -9 8 9 44 23 44 5 0 7 -12 3 -27z m141 -23 c-9 -18 -19 -30
-21 -27 -3 2 3 18 13 35 23 40 29 33 8 -8z m172 6 c77 -45 100 -70 83 -91 -7
-8 -16 -12 -21 -9 -5 3 -7 -1 -4 -8 2 -7 -2 -22 -11 -33 -13 -17 -16 -18 -25
-5 -5 8 -12 27 -16 43 -3 15 -9 27 -14 27 -5 0 -23 15 -41 33 -18 18 -25 24
-15 12 9 -12 17 -27 17 -34 0 -8 16 -31 36 -53 28 -32 33 -42 23 -54 -17 -21
-25 -18 -48 22 -12 19 -26 32 -31 29 -5 -3 -20 1 -32 9 -33 23 -41 19 -15 -7
12 -13 25 -22 28 -20 4 2 22 -14 40 -35 30 -34 39 -38 123 -52 l91 -15 18 -55
c17 -50 17 -57 3 -87 -20 -43 -32 -42 -41 5 -8 45 -21 62 -47 62 -10 0 -17 4
-14 9 8 13 -36 48 -69 54 -94 18 -124 26 -158 41 -21 9 -43 14 -49 10 -7 -4
-8 1 -3 17 11 35 117 219 126 219 4 0 34 -15 66 -34z m-2448 -13 c0 -35 -1
-36 -10 -14 -5 14 -7 31 -5 38 10 24 16 13 15 -24z m-923 -5 c-18 -26 -22 -17
-5 14 6 11 13 17 16 15 3 -3 -2 -16 -11 -29z m3139 15 c-8 -18 -20 -78 -31
-147 -3 -21 -8 -35 -12 -32 -3 4 -12 -4 -20 -16 l-13 -23 6 25 c3 14 8 41 11
60 10 73 37 150 52 150 10 0 12 -5 7 -17z m-2728 -28 c0 -8 -4 -12 -9 -9 -4 3
-8 9 -8 15 0 5 4 9 8 9 5 0 9 -7 9 -15z m2403 -15 c7 11 11 8 20 -15 28 -71
40 -108 36 -112 -2 -3 -13 19 -23 47 -17 45 -21 49 -32 36 -8 -9 -17 -16 -21
-16 -9 0 -30 46 -30 67 0 14 3 14 21 -3 17 -15 22 -16 29 -4z m-2970 6 c0 -3
-4 -8 -10 -11 -5 -3 -10 -1 -10 4 0 6 5 11 10 11 6 0 10 -2 10 -4z m-70 -38
c-1 -26 -3 -30 -10 -16 -6 9 -7 23 -4 32 9 25 14 19 14 -16z m635 2 c3 -5 1
-10 -4 -10 -6 0 -11 5 -11 10 0 6 2 10 4 10 3 0 8 -4 11 -10z m-518 -32 c-3
-8 -6 -5 -6 6 -1 11 2 17 5 13 3 -3 4 -12 1 -19z m-70 -20 c-3 -7 -5 -2 -5 12
0 14 2 19 5 13 2 -7 2 -19 0 -25z m2505 -16 c-41 -4 -49 2 -32 23 7 9 21 13
31 10 12 -4 19 -1 20 7 1 7 4 2 8 -12 6 -23 4 -25 -27 -28z m1576 -13 c-3 -30
-7 -34 -35 -37 -27 -3 -182 23 -191 32 -1 2 19 6 45 10 26 3 75 15 108 25 33
10 64 15 68 11 5 -4 7 -23 5 -41z m-3260 -12 c-12 -22 -20 -17 -23 17 -3 22
-1 24 15 14 15 -9 16 -16 8 -31z m1918 -8 c37 -10 44 -15 44 -35 0 -30 -13
-30 -52 -3 -16 12 -49 27 -71 35 l-42 13 38 0 c21 1 58 -4 83 -10z m-2979 -5
c-3 -3 -12 -4 -19 -1 -8 3 -5 6 6 6 11 1 17 -2 13 -5z m275 -19 c-2 -14 -8
-25 -12 -25 -4 0 -5 11 -2 25 2 14 8 25 12 25 4 0 5 -11 2 -25z m38 15 c0 -5
-4 -10 -10 -10 -5 0 -10 5 -10 10 0 6 5 10 10 10 6 0 10 -4 10 -10z m1931 -14
c-6 -8 -21 -16 -32 -19 -21 -6 -21 -5 -3 13 23 23 53 28 35 6z m-1767 -2 c25
-9 19 -24 -9 -24 -24 0 -32 10 -18 23 8 8 8 8 27 1z m-183 -31 c-12 -20 -14
-14 -5 12 4 9 9 14 11 11 3 -2 0 -13 -6 -23z m1496 -38 c19 -8 45 -15 58 -15
16 0 27 -11 41 -42 10 -24 21 -45 25 -48 15 -12 31 -90 18 -90 -17 0 -9 -40
11 -57 25 -22 26 -55 1 -77 -16 -15 -25 -16 -60 -6 -46 12 -77 41 -127 118
-19 28 -39 52 -43 52 -5 0 -12 19 -16 43 -3 23 -8 49 -11 57 -4 14 46 80 61
80 3 0 22 -7 42 -15z m-1350 -37 c-3 -8 -6 -5 -6 6 -1 11 2 17 5 13 3 -3 4
-12 1 -19z m2721 2 c6 0 12 -4 12 -10 0 -11 -30 -13 -54 -4 -25 9 -19 27 7 20
12 -3 28 -6 35 -6z m672 6 c0 -2 -7 -7 -16 -10 -8 -3 -12 -2 -9 4 6 10 25 14
25 6z m-150 -18 c0 -7 -3 -23 -6 -36 l-7 -23 -14 21 c-8 12 -12 27 -9 35 7 18
36 20 36 3z m110 -2 c0 -2 -7 -9 -15 -16 -13 -11 -14 -10 -9 4 5 14 24 23 24
12z m337 -12 c-3 -3 -12 -4 -19 -1 -8 3 -5 6 6 6 11 1 17 -2 13 -5z m-2671
-69 c62 -25 118 -45 125 -45 18 0 79 -32 79 -41 0 -36 -297 64 -339 115 -23
27 10 20 135 -29z m-1457 -24 c1 -35 -5 -22 -12 24 -5 28 -4 34 3 20 5 -11 9
-31 9 -44z m3651 33 c0 -8 -6 -14 -12 -14 -21 0 -41 17 -34 28 8 14 46 3 46
-14z m97 -17 c-36 -28 -57 -39 -57 -28 0 6 17 18 37 27 20 10 31 20 25 22 -7
2 -9 8 -6 14 4 6 10 5 15 -3 6 -10 1 -20 -14 -32z m-3830 1 c-3 -8 -6 -5 -6 6
-1 11 2 17 5 13 3 -3 4 -12 1 -19z m-127 -18 c0 -5 -2 -10 -4 -10 -3 0 -8 5
-11 10 -3 6 -1 10 4 10 6 0 11 -4 11 -10z m91 -22 l23 -33 -27 24 c-15 14 -27
28 -27 33 0 15 8 8 31 -24z m3739 8 c0 -7 -7 -13 -15 -13 -8 0 -15 8 -15 18 0
12 5 16 15 13 8 -4 15 -12 15 -18z m170 15 c0 -15 -29 -33 -41 -25 -7 4 -9 3
-6 -3 4 -6 -1 -17 -10 -24 -14 -12 -15 -11 -8 11 4 14 8 25 9 25 0 0 10 5 21
12 24 14 35 16 35 4z m-128 -53 c-7 -7 -12 -8 -12 -2 0 6 3 14 7 17 3 4 9 5
12 2 2 -3 -1 -11 -7 -17z m-2398 -15 c-10 -40 -14 -41 -14 -5 0 18 5 32 10 32
6 0 8 -11 4 -27z m-1311 2 c-3 -9 -8 -14 -10 -11 -3 3 -2 9 2 15 9 16 15 13 8
-4z m4195 -10 c-3 -3 -9 2 -12 12 -6 14 -5 15 5 6 7 -7 10 -15 7 -18z m-664
-49 c-10 -8 -21 -12 -24 -9 -3 2 4 11 14 19 11 7 22 12 25 9 2 -3 -4 -12 -15
-19z m-1884 9 c0 -3 -21 -14 -47 -26 -33 -15 -77 -24 -140 -28 -74 -5 -97 -10
-123 -29 -33 -25 -44 -25 -35 0 10 26 97 58 193 71 113 15 152 18 152 12z
m-1137 -18 c3 -8 2 -29 -3 -48 l-8 -34 -1 32 c-1 17 -4 38 -7 47 -3 9 -2 16 4
16 5 0 12 -6 15 -13z m2894 -1 c0 -8 -6 -12 -15 -9 -11 5 -11 7 0 14 7 5 13 9
14 9 0 0 1 -6 1 -14z m-2926 -139 c15 -4 17 -12 13 -43 -2 -21 -11 -45 -19
-54 -8 -9 -12 -20 -8 -25 5 -4 1 -6 -7 -3 -8 2 -20 26 -27 53 -7 27 -20 56
-28 64 -9 9 -15 12 -14 6 5 -28 -2 -56 -13 -52 -7 2 -12 10 -10 16 3 17 -15
13 -22 -5 -3 -9 -6 -30 -6 -47 1 -30 1 -31 15 -13 12 16 15 17 15 4 0 -42 -66
-20 -78 25 -10 40 -28 45 -37 10 l-7 -28 -24 28 c-27 31 -32 82 -9 90 8 4 21
22 29 42 17 39 46 48 46 13 0 -13 -7 -32 -15 -42 -19 -25 -19 -37 -1 -30 8 3
19 18 25 32 16 43 57 86 75 79 25 -10 20 -29 -6 -22 -16 6 -20 4 -15 -8 3 -8
-1 -27 -9 -42 -13 -26 -13 -27 8 -21 13 3 30 6 39 6 12 0 15 7 11 27 -4 23 -2
25 17 20 18 -4 21 -1 22 31 1 24 5 12 11 -35 8 -57 14 -72 29 -76z m2924 105
c-3 -3 -11 0 -18 7 -9 10 -8 11 6 5 10 -3 15 -9 12 -12z m-1586 -24 c11 -17
10 -18 -8 -9 -25 14 -34 28 -17 28 7 0 19 -9 25 -19z m-954 2 c-3 -5 -12 -10
-18 -10 -7 0 -6 4 3 10 19 12 23 12 15 0z m2453 -25 c-3 -3 -9 2 -12 12 -6 14
-5 15 5 6 7 -7 10 -15 7 -18z m-3245 -65 c4 -56 3 -65 -3 -35 -9 40 -13 122
-6 114 2 -2 6 -38 9 -79z m1103 -81 c12 -20 -11 -26 -28 -7 -17 17 -17 18 1
18 11 0 23 -5 27 -11z m-789 -21 c-3 -8 -6 -5 -6 6 -1 11 2 17 5 13 3 -3 4
-12 1 -19z m649 -5 c-6 -6 -36 9 -36 18 0 5 9 4 20 -3 10 -7 18 -14 16 -15z
m2389 7 c3 -5 1 -10 -4 -10 -6 0 -11 5 -11 10 0 6 2 10 4 10 3 0 8 -4 11 -10z
m-3418 -97 c-3 -10 -5 -4 -5 12 0 17 2 24 5 18 2 -7 2 -21 0 -30z m278 -12
c-3 -17 -2 -32 4 -36 7 -4 11 4 11 19 0 14 5 26 12 26 6 0 8 -3 5 -6 -4 -4 6
-23 22 -43 15 -20 33 -46 40 -59 13 -25 31 -21 31 7 0 9 6 26 14 37 12 16 17
17 28 5 10 -11 10 -14 1 -18 -18 -6 -16 -23 2 -23 10 0 15 10 15 29 0 17 5 33
10 36 13 8 13 -105 0 -125 -9 -13 -10 -13 -11 0 -1 8 -1 18 0 23 0 4 -6 7 -14
7 -16 0 -17 -6 -19 -122 0 -38 2 -68 7 -68 4 0 7 -5 7 -11 0 -6 -9 -8 -21 -4
-15 5 -19 4 -15 -4 15 -24 -14 -9 -48 25 l-36 36 0 -35 c0 -20 -5 -39 -11 -42
-6 -4 -8 -13 -5 -21 7 -17 -6 -18 -22 -2 -7 7 -12 9 -12 6 0 -4 7 -14 16 -22
14 -15 14 -16 -1 -16 -12 0 -16 -8 -15 -27 4 -55 0 -69 -30 -103 -16 -19 -28
-28 -25 -20 2 8 6 30 9 48 4 32 4 33 -13 17 -17 -15 -19 -15 -25 0 -10 26 -7
50 7 64 6 6 12 24 12 40 0 23 -3 27 -24 23 -17 -4 -22 -1 -16 8 5 9 2 10 -14
5 -13 -4 -28 -1 -37 6 -23 19 -36 -2 -28 -48 7 -47 23 -75 31 -55 11 26 33 12
33 -22 0 -45 -24 -66 -42 -37 -7 12 -16 21 -21 21 -4 0 -6 -4 -3 -9 3 -5 -1
-12 -10 -15 -31 -12 -64 -6 -84 16 -11 12 -20 16 -20 9 0 -7 -5 -9 -10 -6 -6
4 -8 16 -5 28 2 12 2 16 -1 9 -4 -8 -11 -5 -25 10 -21 27 -25 12 -4 -16 8 -10
12 -23 8 -29 -4 -6 -1 -7 7 -2 10 6 12 4 7 -9 -4 -10 -1 -24 8 -32 8 -9 15
-20 15 -25 0 -14 -20 -10 -26 5 -4 12 -12 13 -32 5 -22 -9 -29 -7 -43 13 -19
25 -5 46 17 27 9 -7 12 -5 10 7 -1 9 -10 22 -19 29 -20 14 -21 28 -5 55 10 16
9 23 -12 45 l-24 25 -13 -31 c-7 -17 -27 -49 -44 -70 -17 -22 -28 -46 -25 -54
8 -22 -7 -18 -22 6 -11 18 -11 24 2 38 22 24 20 44 -7 69 -21 20 -62 21 -77 2
-3 -3 -24 -5 -48 -2 -37 4 -43 7 -40 26 2 14 10 21 25 20 12 0 19 4 16 9 -3 5
-17 7 -32 4 l-26 -5 24 19 c13 11 30 23 38 27 7 5 16 33 20 62 3 30 8 49 11
42 8 -25 24 -12 18 16 -5 25 -5 26 6 5 6 -13 17 -23 23 -23 7 0 24 -9 38 -20
l25 -20 32 30 32 30 33 -27 c27 -22 35 -37 40 -75 6 -42 9 -47 22 -36 12 10
18 9 29 -7 16 -21 16 -21 31 25 25 77 25 80 9 80 -13 0 -16 10 -14 45 1 25 7
49 13 53 15 9 45 70 45 91 0 13 12 17 55 19 l55 2 0 -30 c0 -33 2 -35 31 -20
11 6 19 21 19 35 0 24 12 29 78 34 21 1 23 -2 17 -28z m694 -23 c-1 -55 -5
-50 -11 15 -2 20 0 37 4 37 4 0 7 -24 7 -52z m-599 10 c10 -21 10 -21 -3 -6
-8 10 -17 15 -20 11 -4 -3 -7 -1 -7 5 0 20 19 13 30 -10z m578 -3 c-3 -3 -9 2
-12 12 -6 14 -5 15 5 6 7 -7 10 -15 7 -18z m-1358 -39 c0 -3 -4 -8 -10 -11 -5
-3 -10 -1 -10 4 0 6 5 11 10 11 6 0 10 -2 10 -4z m1031 -23 c13 4 19 1 16 -6
-2 -7 -12 -11 -22 -9 -25 5 -33 -14 -25 -51 7 -33 -12 -87 -30 -87 -15 0 -23
21 -11 33 6 6 11 26 11 43 0 18 4 35 9 38 4 3 12 20 16 38 6 24 9 28 12 15 3
-13 11 -17 24 -14z m396 -5 c-3 -7 -5 -2 -5 12 0 14 2 19 5 13 2 -7 2 -19 0
-25z m2564 -4 c-5 -16 -10 -21 -10 -12 -1 18 10 51 15 45 2 -1 -1 -16 -5 -33z
m-3014 -1 c3 -7 -3 -9 -16 -6 -12 3 -21 10 -21 15 0 13 32 6 37 -9z m-36 -35
c6 -11 12 -32 14 -46 2 -15 2 -21 -1 -14 -3 6 -10 12 -15 12 -6 0 -8 -4 -5 -9
4 -5 -3 -7 -15 -4 -14 4 -17 8 -9 13 9 6 9 13 1 28 -6 11 -11 28 -11 36 0 20
27 10 41 -16z m446 -50 c-3 -8 -6 -5 -6 6 -1 11 2 17 5 13 3 -3 4 -12 1 -19z
m-1357 -32 c0 -8 -9 -24 -20 -37 l-20 -24 6 30 c4 17 9 33 11 38 7 12 23 8 23
-7z m1320 -68 c0 7 5 12 10 12 16 0 11 -27 -6 -34 -20 -8 -20 -8 -28 24 -7 24
-6 24 8 6 9 -11 16 -14 16 -8z m-34 -30 c-3 -7 -7 -25 -10 -40 -4 -16 -11 -28
-16 -28 -5 0 -7 6 -5 13 18 50 25 67 29 67 3 0 4 -6 2 -12z m-342 -103 l6 -70
-16 43 c-8 24 -13 50 -10 58 3 8 1 27 -5 42 -9 24 -8 25 4 12 9 -9 17 -45 21
-85z m-70 40 c3 -8 1 -15 -3 -15 -5 0 -11 7 -15 15 -3 8 -1 15 3 15 5 0 11 -7
15 -15z m-76 -118 c-2 -26 0 -47 5 -47 4 0 7 -5 7 -11 0 -5 -5 -7 -12 -3 -11
7 -10 -3 7 -51 4 -14 1 -12 -9 5 -11 18 -14 40 -10 80 3 30 1 68 -5 85 -10 28
-10 29 5 10 10 -13 14 -35 12 -68z m545 24 c0 -22 -10 -55 -23 -75 -26 -43
-34 -46 -26 -8 5 19 4 23 -3 12 -12 -18 -17 -13 -24 28 -4 19 -2 32 4 32 6 0
8 -4 4 -9 -3 -5 -1 -12 4 -15 12 -8 44 42 35 55 -7 11 16 32 25 23 3 -2 4 -22
4 -43z m-590 14 c4 -8 2 -17 -3 -20 -6 -4 -10 3 -10 14 0 25 6 27 13 6z m-552
-4 c-9 -6 -10 -14 -3 -27 5 -11 7 -25 5 -32 -3 -7 0 -19 7 -27 14 -17 5 -34
-24 -45 -31 -11 -38 -2 -21 29 17 34 16 71 -3 71 -16 0 27 39 43 40 6 0 4 -4
-4 -9z m675 -23 c0 -17 -11 -42 -22 -55 -21 -22 -41 -32 -30 -14 4 5 1 11 -5
13 -9 3 -9 9 0 25 6 12 8 29 4 39 -4 12 -3 15 5 10 7 -4 12 -2 12 3 0 6 9 11
19 11 15 0 19 -7 17 -32z m72 -21 c18 -15 15 -33 -13 -61 -14 -14 -25 -21 -25
-16 0 6 -6 9 -12 8 -8 -2 -12 6 -11 17 1 11 3 32 5 46 2 21 6 25 23 21 11 -3
26 -9 33 -15z m55 -24 c5 -34 1 -39 -22 -24 -10 6 -10 10 -1 16 6 4 9 13 6 20
-2 7 -2 16 1 19 9 8 10 5 16 -31z m-233 -29 c0 -8 -4 -14 -9 -14 -6 0 -9 9 -8
19 1 22 17 18 17 -5z m-223 -26 c-3 -7 -5 -2 -5 12 0 14 2 19 5 13 2 -7 2 -19
0 -25z m830 -45 c-3 -10 -5 -2 -5 17 0 19 2 27 5 18 2 -10 2 -26 0 -35z
m-1102 28 c-3 -5 -1 -12 5 -16 5 -3 10 1 10 9 0 23 16 20 34 -6 19 -26 21
-104 4 -114 -6 -4 -8 -3 -5 4 4 5 5 17 2 24 -5 12 -16 13 -65 4 -32 -6 -62
-14 -66 -18 -17 -17 -34 -7 -34 20 0 35 9 45 27 31 10 -9 13 -7 13 8 0 23 26
49 55 56 11 2 21 5 23 6 2 0 1 -3 -3 -8z m584 -25 c-3 -3 -11 5 -18 17 -13 21
-12 21 5 5 10 -10 16 -20 13 -22z m976 -14 c-3 -3 -11 0 -18 7 -9 10 -8 11 6
5 10 -3 15 -9 12 -12z m-574 -19 c-12 -20 -14 -14 -5 12 4 9 9 14 11 11 3 -2
0 -13 -6 -23z m99 17 c0 -5 -5 -10 -11 -10 -5 0 -7 5 -4 10 3 6 8 10 11 10 2
0 4 -4 4 -10z m-714 -23 c16 6 18 -15 4 -51 -12 -33 -30 -34 -30 -2 0 39 -18
40 -40 4 -19 -32 -20 -32 -20 -8 0 14 4 30 8 36 12 18 47 33 56 24 5 -5 15 -6
22 -3z m581 -24 c-3 -10 -5 -4 -5 12 0 17 2 24 5 18 2 -7 2 -21 0 -30z m-460
-34 c9 -9 6 -20 -10 -43 -12 -17 -23 -33 -25 -36 -2 -2 -7 2 -11 9 -11 17 8
81 24 81 6 0 16 -5 22 -11z m549 -24 c-7 -19 -36 -19 -36 0 0 17 33 38 38 24
2 -5 1 -16 -2 -24z m-750 -22 c4 -10 7 -21 6 -25 -1 -4 3 -19 8 -33 8 -21 14
-24 34 -19 34 8 44 -15 16 -36 -20 -15 -26 -16 -51 -3 -45 22 -68 133 -28 133
4 0 10 -8 15 -17z m156 -85 c-7 -7 -12 -8 -12 -2 0 14 12 26 19 19 2 -3 -1
-11 -7 -17z m-47 -28 c-3 -5 -10 -10 -16 -10 -5 0 -9 5 -9 10 0 6 7 10 16 10
8 0 12 -4 9 -10z m-110 -120 c3 -5 2 -10 -4 -10 -5 0 -13 5 -16 10 -3 6 -2 10
4 10 5 0 13 -4 16 -10z m1731 -238 c-17 -16 -18 -16 -5 5 7 12 15 20 18 17 3
-2 -3 -12 -13 -22z m-209 -39 c-3 -10 -5 -4 -5 12 0 17 2 24 5 18 2 -7 2 -21
0 -30z m236 -136 c-3 -4 -6 -7 -7 -5 -1 2 -8 12 -16 22 -14 18 -14 18 7 6 12
-8 19 -18 16 -23z"/>
<path d="M3385 5540 c21 -24 26 -25 19 -6 -3 8 -13 17 -22 21 -13 5 -13 2 3
-15z"/>
<path d="M3420 5506 c0 -3 9 -10 20 -16 11 -6 20 -8 20 -6 0 3 -9 10 -20 16
-11 6 -20 8 -20 6z"/>
<path d="M4220 5377 c0 -17 5 -27 15 -27 19 0 19 9 0 34 -14 19 -15 19 -15 -7z"/>
<path d="M2252 5248 c-12 -15 -5 -57 16 -94 8 -14 10 -13 16 9 3 14 3 32 0 41
-9 22 22 31 54 16 l27 -12 -21 -15 c-14 -9 -20 -21 -17 -34 6 -22 14 -24 30
-8 7 7 20 0 45 -25 38 -39 48 -44 48 -21 0 8 -9 15 -20 15 -18 0 -19 5 -13 46
5 38 3 46 -8 42 -8 -3 -26 6 -40 19 -32 30 -99 42 -117 21z"/>
<path d="M2330 5091 c0 -5 5 -13 10 -16 6 -3 10 -2 10 4 0 5 -4 13 -10 16 -5
3 -10 2 -10 -4z"/>
<path d="M2374 5054 c11 -8 24 -14 30 -14 16 0 -12 24 -31 26 -16 2 -16 1 1
-12z"/>
<path d="M855 4860 c3 -5 8 -10 11 -10 2 0 4 5 4 10 0 6 -5 10 -11 10 -5 0 -7
-4 -4 -10z"/>
<path d="M547 4595 c-33 -41 -33 -45 -6 -45 24 0 48 26 49 52 0 30 -15 27 -43
-7z"/>
<path d="M783 4573 c3 -15 -1 -37 -10 -49 -8 -13 -13 -37 -11 -55 3 -31 4 -32
21 -15 15 15 17 15 17 2 0 -20 10 -20 35 -2 11 8 25 12 32 9 19 -7 16 5 -8 30
-11 12 -29 41 -40 65 -22 47 -44 57 -36 15z"/>
<path d="M561 4518 c0 -9 -7 -18 -13 -21 -7 -2 -11 -7 -8 -10 11 -12 32 11 27
29 -4 15 -5 16 -6 2z"/>
<path d="M628 4502 c-29 -14 -35 -26 -18 -37 13 -8 13 -65 1 -65 -27 0 -41 15
-41 41 0 27 -2 28 -20 17 -13 -9 -20 -23 -19 -43 1 -17 3 -22 6 -12 2 9 8 17
13 17 13 0 32 -29 25 -40 -3 -5 -1 -10 4 -10 6 0 11 -7 11 -15 0 -8 4 -15 9
-15 20 0 41 13 41 25 0 8 5 17 11 21 8 5 10 -1 7 -20 -6 -30 6 -45 16 -20 4 9
13 14 21 10 21 -8 31 20 15 39 -7 8 -23 15 -35 15 -19 0 -35 17 -35 37 0 3 11
3 25 1 29 -6 30 -3 7 38 -16 29 -18 29 -44 16z"/>
<path d="M717 4466 c-3 -8 1 -17 9 -20 22 -9 23 -8 17 14 -6 23 -19 26 -26 6z"/>
<path d="M280 4429 c0 -12 5 -19 12 -17 18 6 20 25 3 31 -10 5 -15 0 -15 -14z"/>
<path d="M148 4418 c-6 -16 1 -38 12 -38 15 0 19 28 6 40 -10 8 -15 7 -18 -2z"/>
<path d="M720 4410 c0 -22 15 -27 24 -7 5 9 7 9 12 -1 7 -15 24 -6 24 14 0 9
-11 14 -30 14 -23 0 -30 -4 -30 -20z"/>
<path d="M187 4392 c-24 -27 -21 -38 22 -80 21 -20 41 -47 45 -59 10 -33 21
-28 34 13 10 33 9 36 -14 44 -37 14 -28 23 16 15 l40 -7 0 41 c0 45 -1 46 -31
29 -17 -11 -22 -10 -30 5 -12 21 -29 14 -29 -12 0 -10 -7 -24 -15 -31 -17 -14
-21 0 -4 17 12 12 6 43 -9 43 -5 0 -16 -8 -25 -18z"/>
<path d="M740 4350 c0 -5 5 -10 11 -10 6 0 3 -7 -5 -16 -19 -18 -21 -34 -5
-34 21 0 38 33 28 52 -10 19 -29 24 -29 8z"/>
<path d="M410 4018 c0 -9 5 -20 10 -23 13 -8 13 5 0 25 -8 13 -10 13 -10 -2z"/>
<path d="M4621 6198 c0 -7 31 -38 69 -68 38 -30 69 -61 69 -68 1 -12 50 -102
56 -102 1 0 -2 21 -6 47 -10 53 2 75 42 78 36 3 35 25 0 25 -24 0 -34 -6 -43
-25 -6 -14 -14 -25 -18 -25 -3 0 -20 20 -37 44 -17 24 -51 58 -76 75 -51 34
-57 37 -56 19z"/>
<path d="M4265 5940 c-3 -5 1 -10 9 -10 9 0 16 5 16 10 0 6 -4 10 -9 10 -6 0
-13 -4 -16 -10z"/>
<path d="M4215 5830 c3 -5 8 -10 11 -10 2 0 4 5 4 10 0 6 -5 10 -11 10 -5 0
-7 -4 -4 -10z"/>
<path d="M3450 5762 c0 -7 8 -21 17 -32 14 -16 30 -20 77 -20 69 0 70 9 0 16
-31 2 -56 12 -71 26 -13 12 -23 16 -23 10z"/>
<path d="M3666 5684 c-4 -9 1 -14 14 -14 23 0 27 15 6 23 -8 3 -17 -1 -20 -9z"/>
<path d="M3555 5640 c-8 -13 15 -24 27 -12 6 6 4 11 -6 15 -8 3 -18 2 -21 -3z"/>
<path d="M3178 5238 c6 -6 18 -8 28 -6 14 3 12 5 -9 10 -19 3 -25 2 -19 -4z"/>
<path d="M4755 5225 c-3 -8 -7 -21 -9 -28 -3 -10 3 -13 20 -9 16 3 24 0 24
-10 0 -8 6 -23 14 -33 12 -17 13 -16 12 13 0 18 -4 32 -7 32 -4 0 -10 11 -13
25 -7 27 -34 34 -41 10z"/>
<path d="M2968 5187 c-22 -18 -17 -49 12 -64 38 -19 190 -5 190 17 0 5 -7 7
-15 4 -8 -4 -15 -2 -15 4 0 5 -30 10 -67 10 -98 0 -95 -1 -88 22 7 23 6 24
-17 7z"/>
<path d="M4695 5177 c-4 -10 -5 -21 -1 -24 10 -10 18 4 13 24 -4 17 -4 17 -12
0z"/>
<path d="M4720 5051 c0 -5 5 -13 10 -16 6 -3 10 -2 10 4 0 5 -4 13 -10 16 -5
3 -10 2 -10 -4z"/>
<path d="M3144 5029 c-5 -8 -2 -11 8 -7 10 4 14 0 14 -16 -1 -17 4 -20 25 -18
19 2 33 -4 47 -23 18 -23 21 -24 26 -8 3 10 2 32 -2 48 -8 28 -12 30 -59 33
-32 2 -54 -1 -59 -9z"/>
<path d="M4760 5009 c0 -11 4 -18 10 -14 5 3 7 12 3 20 -7 21 -13 19 -13 -6z"/>
<path d="M1141 4896 l-24 -13 22 -13 c27 -14 34 -9 29 18 -3 19 -5 19 -27 8z"/>
<path d="M3090 4885 c47 -18 85 -18 100 0 11 13 3 15 -61 14 -73 -1 -74 -1
-39 -14z"/>
<path d="M1196 4875 c-3 -9 0 -15 9 -15 8 0 15 7 15 15 0 8 -4 15 -9 15 -5 0
-11 -7 -15 -15z"/>
<path d="M2416 4883 c-9 -10 -7 -25 3 -19 5 4 12 0 14 -6 4 -8 6 -7 6 4 1 19
-13 31 -23 21z"/>
<path d="M1248 4874 c-5 -4 -8 -19 -8 -33 0 -18 3 -22 11 -14 6 6 9 21 7 33
-1 12 -6 18 -10 14z"/>
<path d="M1390 4872 c0 -7 -9 -12 -21 -12 -46 0 -57 -16 -57 -80 0 -60 1 -61
19 -44 10 9 19 23 19 31 0 11 4 11 20 3 18 -9 20 -8 20 15 0 23 -3 25 -22 20
-13 -3 -18 -3 -13 2 18 14 47 64 41 71 -3 3 -6 0 -6 -6z"/>
<path d="M1436 4862 c-4 -13 -5 -26 -2 -29 10 -11 18 4 14 29 l-4 23 -8 -23z"/>
<path d="M2288 4848 c-26 -34 -38 -70 -44 -126 -2 -26 6 -15 42 54 29 54 42
90 36 96 -5 5 -18 -4 -34 -24z"/>
<path d="M1077 4763 c-4 -3 -7 -18 -6 -32 1 -26 1 -25 10 3 9 31 7 41 -4 29z"/>
<path d="M1680 4665 c0 -45 5 -51 28 -37 10 7 9 16 -3 45 -8 20 -17 37 -20 37
-3 0 -5 -20 -5 -45z"/>
<path d="M1731 4664 c0 -11 3 -14 6 -6 3 7 2 16 -1 19 -3 4 -6 -2 -5 -13z"/>
<path d="M1760 4655 c0 -16 16 -20 24 -6 3 5 -1 11 -9 15 -9 3 -15 0 -15 -9z"/>
<path d="M3330 4634 c0 -5 16 -36 36 -69 34 -55 104 -217 133 -307 7 -20 19
-42 26 -48 11 -9 10 0 -4 31 -11 24 -33 90 -49 146 -29 99 -81 201 -122 238
-11 10 -20 14 -20 9z"/>
<path d="M3100 4609 c0 -9 -13 -42 -29 -75 -42 -82 -54 -117 -39 -108 8 5 9
-2 4 -27 -4 -19 -9 -50 -12 -69 l-4 -35 13 29 c10 20 16 25 22 16 4 -7 2 -16
-5 -20 -9 -5 -9 -9 -1 -14 18 -11 13 -26 -6 -20 -14 5 -15 4 -4 -4 7 -5 10
-15 7 -21 -12 -19 2 -12 24 12 25 25 52 83 54 112 0 11 6 21 11 23 6 2 16 14
23 28 11 22 10 31 -12 79 -15 29 -26 60 -26 67 0 7 -5 20 -10 28 -8 13 -10 13
-10 -1z"/>
<path d="M3188 4575 c-12 -27 -10 -32 47 -134 14 -25 74 -94 133 -155 94 -96
121 -133 205 -273 53 -90 97 -165 97 -168 0 -3 -6 -5 -12 -3 -11 2 -127 -21
-136 -27 -1 -1 0 -9 4 -18 5 -15 8 -15 30 0 22 14 24 14 24 -1 0 -9 5 -16 11
-16 5 0 8 4 5 9 -3 5 8 11 26 13 28 5 29 4 13 -9 -18 -13 -18 -13 1 -13 18 -1
18 -1 1 -11 -10 -6 -25 -8 -32 -5 -8 3 -17 1 -20 -3 -10 -17 26 -21 59 -7 29
12 32 17 29 47 l-3 34 19 -42 c11 -24 23 -59 27 -79 6 -33 5 -36 -11 -30 -13
5 -16 2 -11 -10 3 -8 6 -19 6 -22 0 -4 5 0 11 8 8 11 9 7 5 -18 -4 -21 0 -45
9 -62 8 -16 14 -33 13 -37 -1 -4 2 -34 6 -65 8 -59 4 -80 -17 -72 -14 5 -20
64 -7 64 6 0 10 4 10 9 0 5 -9 7 -20 4 -11 -3 -20 -10 -20 -15 0 -6 -7 -8 -15
-4 -8 3 -21 -1 -28 -9 -12 -11 -21 -7 -58 31 -24 25 -56 51 -71 59 -23 13 -27
13 -32 -2 -8 -20 12 -42 42 -48 23 -4 73 -35 58 -35 -16 0 27 -40 43 -40 13
-1 13 -3 -2 -11 -17 -10 -49 -68 -53 -94 0 -5 -6 -23 -12 -38 -20 -47 -13 -45
18 6 17 26 38 48 48 48 86 6 112 17 112 50 0 17 20 29 20 12 0 -5 9 -50 20
-102 11 -52 20 -105 20 -118 0 -21 5 -23 44 -23 l43 0 -8 49 c-4 27 -12 66
-18 87 -13 47 -14 114 -2 114 14 0 35 -63 33 -105 0 -11 4 -48 10 -83 8 -50
14 -62 27 -60 9 2 16 12 16 23 0 15 19 29 73 56 80 40 119 71 119 95 0 12 -8
14 -36 10 -60 -8 -145 -28 -163 -37 -11 -6 -18 -4 -22 7 -9 23 -8 24 15 24 11
0 53 11 92 24 40 13 90 27 112 30 22 4 47 12 55 17 19 14 -170 5 -197 -9 -10
-5 -34 -12 -54 -15 l-36 -5 -17 75 c-10 41 -15 77 -12 80 3 4 6 0 6 -8 0 -8
10 -14 25 -14 31 0 31 2 -2 31 -45 39 -20 36 38 -4 30 -21 86 -48 126 -60 67
-21 242 -47 251 -37 9 9 -56 28 -153 44 -77 13 -96 19 -82 27 14 8 9 13 -34
28 -34 13 -47 21 -38 27 9 5 4 10 -17 14 -39 8 -116 26 -130 30 -7 2 -10 -5
-8 -18 3 -12 -4 1 -14 28 -31 83 -35 119 -15 137 23 19 91 38 137 38 40 0 45
9 17 34 -12 11 -36 18 -63 18 -56 0 -73 10 -65 38 4 16 2 20 -9 16 -22 -8 -6
42 24 79 35 42 143 265 128 265 -2 0 -19 -26 -39 -57 -19 -32 -52 -75 -71 -97
-42 -45 -63 -99 -77 -205 -15 -102 -19 -113 -31 -77 -8 21 -7 31 3 38 11 8 10
9 -3 5 -9 -3 -19 1 -22 9 -4 9 -2 12 5 8 7 -4 10 -1 7 7 -3 8 -10 13 -17 12
-12 -3 -16 2 -96 145 -31 56 -61 105 -66 107 -4 3 11 -29 35 -72 128 -233 214
-445 231 -570 4 -26 9 -56 12 -65 2 -10 0 -18 -6 -18 -5 0 -16 31 -25 68 -18
78 -74 245 -111 329 -37 82 -166 307 -222 385 -26 37 -79 110 -116 163 -91
127 -102 150 -88 182 9 19 9 24 -1 21 -7 -3 -21 6 -31 19 -25 31 -64 30 -79
-2z m502 -1165 c0 -5 -2 -10 -4 -10 -3 0 -8 5 -11 10 -3 6 -1 10 4 10 6 0 11
-4 11 -10z m-30 -16 c0 -3 -10 -9 -22 -14 -21 -8 -21 -9 -3 -10 19 -1 19 -1 2
-11 -23 -13 -31 -7 -23 18 5 16 46 31 46 17z m47 -10 c-3 -3 -12 -4 -19 -1 -8
3 -5 6 6 6 11 1 17 -2 13 -5z"/>
<path d="M2717 4562 c-9 -10 -19 -34 -22 -53 -3 -23 -2 -26 3 -11 10 31 24 32
39 1 7 -14 30 -38 51 -52 20 -15 45 -40 55 -56 12 -21 22 -28 37 -24 11 3 20
10 20 15 0 6 -9 8 -20 5 -11 -3 -20 0 -21 6 0 7 -3 21 -5 32 -3 11 -6 30 -7
42 -1 13 -6 23 -11 23 -5 0 -3 7 5 16 8 10 23 14 41 12 15 -3 28 -2 28 1 0 3
4 12 9 20 7 11 14 10 37 -5 l29 -18 -24 27 c-25 28 -50 34 -66 18 -6 -5 -30
-13 -55 -18 -35 -7 -44 -13 -42 -26 3 -16 0 -16 -17 -5 -12 7 -20 17 -19 23 2
14 -13 45 -22 45 -4 0 -14 -8 -23 -18z"/>
<path d="M2130 4462 c0 -5 9 -17 21 -28 21 -19 21 -19 18 6 -4 23 -39 43 -39
22z"/>
<path d="M2988 4441 c-2 -16 -1 -37 3 -47 5 -13 8 -3 8 29 1 53 -5 62 -11 18z"/>
<path d="M2407 4384 c-3 -3 -3 -13 0 -21 5 -12 7 -12 14 -1 15 23 4 40 -14 22z"/>
<path d="M2944 4374 c-18 -14 -18 -15 4 -4 12 6 22 13 22 15 0 8 -5 6 -26 -11z"/>
<path d="M4090 4258 c0 -50 3 -57 50 -108 48 -52 50 -53 36 -20 -8 19 -26 65
-41 103 -15 37 -31 70 -36 73 -5 3 -9 -19 -9 -48z"/>
<path d="M2987 4240 c-8 -72 -24 -110 -38 -89 -5 8 -9 10 -10 4 -2 -29 -9 -48
-23 -70 -16 -24 -13 -75 3 -75 4 0 7 -9 8 -21 2 -27 22 -51 36 -42 6 4 8 0 4
-11 -4 -10 -3 -15 3 -11 5 3 14 -3 19 -14 16 -29 13 -38 -4 -15 -14 16 -13 14
0 -15 16 -33 23 -62 25 -111 1 -23 2 -23 11 -6 8 13 8 52 -1 140 -7 66 -14
181 -16 255 -2 74 -6 136 -8 138 -1 2 -6 -24 -9 -57z m10 -302 c-3 -8 -6 -5
-6 6 -1 11 2 17 5 13 3 -3 4 -12 1 -19z"/>
<path d="M3193 4264 c-3 -8 -1 -20 5 -26 7 -7 10 -2 9 16 -2 30 -5 32 -14 10z"/>
<path d="M1181 4224 c0 -11 3 -14 6 -6 3 7 2 16 -1 19 -3 4 -6 -2 -5 -13z"/>
<path d="M3097 4214 c-64 -36 -70 -46 -62 -101 l6 -49 72 -1 c110 -1 119 -2
112 -13 -4 -6 -1 -17 5 -25 6 -8 9 -19 5 -24 -3 -6 -1 -19 4 -28 9 -15 10 -11
11 18 0 20 -3 39 -6 42 -8 8 -14 67 -7 67 3 0 20 -9 39 -20 18 -12 35 -17 38
-11 8 13 -119 126 -141 126 -10 0 -22 9 -28 20 l-10 21 -38 -22z"/>
<path d="M3330 4225 c-11 -13 -10 -14 4 -9 9 3 16 10 16 15 0 13 -6 11 -20 -6z"/>
<path d="M3384 4183 c-9 -27 -23 -63 -30 -80 -21 -52 -7 -38 25 25 35 71 45
102 33 102 -6 0 -18 -21 -28 -47z"/>
<path d="M1185 4110 c7 -102 17 -170 24 -166 8 5 6 115 -3 123 -3 4 -6 22 -6
42 0 20 -5 43 -10 51 -7 10 -9 -5 -5 -50z"/>
<path d="M2755 4160 c3 -5 8 -10 11 -10 2 0 4 5 4 10 0 6 -5 10 -11 10 -5 0
-7 -4 -4 -10z"/>
<path d="M3556 4157 c3 -10 9 -15 12 -12 3 3 0 11 -7 18 -10 9 -11 8 -5 -6z"/>
<path d="M4459 4138 c-6 -11 -9 -36 -6 -55 4 -22 2 -31 -5 -27 -6 4 -9 -4 -6
-22 3 -16 3 -24 1 -18 -5 15 -30 21 -68 18 -16 -1 -49 -3 -72 -5 -23 -1 -40
-6 -37 -11 3 -4 1 -8 -5 -8 -5 0 -14 7 -18 15 -9 15 -103 49 -103 37 0 -18 85
-199 99 -210 9 -8 10 -11 4 -7 -16 8 -16 -6 -2 -39 7 -14 16 -23 21 -20 4 3
11 -3 14 -13 3 -10 10 -29 16 -43 9 -24 10 -24 21 -5 7 11 25 22 41 23 20 3
26 0 21 -8 -4 -7 -3 -15 2 -19 5 -3 6 -17 2 -31 -6 -20 -7 -21 -8 -5 -1 17 -4
15 -16 -9 -17 -32 -23 -15 67 -171 43 -75 50 -93 38 -100 -6 -3 -21 18 -34 47
-19 41 -25 48 -25 28 -1 -41 9 -67 33 -79 19 -11 29 -8 72 21 28 19 67 47 87
62 l36 28 -20 21 c-28 30 -51 76 -44 87 3 6 2 10 -4 10 -5 0 -13 10 -16 23 -8
26 -32 85 -45 109 -15 26 -11 36 5 14 7 -10 18 -15 24 -12 12 8 28 -20 33 -56
4 -30 34 -78 49 -78 6 0 31 -16 56 -35 26 -20 53 -33 61 -30 10 4 12 0 8 -11
-3 -8 -6 -18 -6 -20 0 -2 -18 -4 -40 -4 -42 0 -54 -14 -20 -25 28 -9 133 -102
142 -126 4 -11 18 -23 32 -28 13 -6 26 -16 29 -23 3 -7 6 10 6 39 1 41 -3 52
-16 56 -15 4 -15 5 2 6 17 1 18 3 5 11 -13 9 -13 11 0 20 8 5 10 10 4 10 -6 0
-24 18 -39 40 -16 22 -33 39 -39 37 -13 -4 -57 38 -54 51 2 5 -13 29 -32 53
-19 24 -34 51 -32 59 1 9 -5 25 -15 35 -10 11 -29 41 -42 68 -13 26 -28 47
-33 47 -4 0 -8 6 -8 13 0 6 -14 41 -30 77 -29 64 -29 65 -10 81 15 13 16 19 7
30 -32 36 26 -17 98 -90 44 -44 83 -77 87 -75 4 3 8 1 8 -3 0 -5 14 -17 30
-26 52 -31 31 8 -56 103 -39 43 -51 95 -26 109 15 9 15 10 1 11 -9 0 -22 11
-29 25 -10 19 -16 22 -27 14 -10 -9 -13 -8 -13 1 0 9 -4 10 -13 2 -10 -8 -21
-7 -42 4 -15 8 -33 13 -39 11 -6 -2 -21 0 -33 4 -18 7 -25 4 -34 -13z m-109
-133 c29 -17 52 -20 30 -4 -11 8 -8 9 15 4 38 -8 36 -6 42 -60 5 -41 4 -45
-16 -45 -11 0 -20 3 -20 8 1 4 0 10 -1 15 -1 4 -3 12 -4 19 0 7 -17 17 -36 23
-47 13 -86 41 -68 48 21 9 31 7 58 -8z m-132 -2 c-4 -14 13 -53 23 -53 5 0 9
-9 9 -20 0 -28 17 -25 24 5 7 27 33 33 55 13 11 -10 13 -10 7 0 -8 14 -5 15
18 6 11 -4 14 -13 10 -30 -4 -15 -2 -24 6 -24 7 0 10 -6 7 -14 -4 -10 1 -13
17 -12 13 2 28 6 34 10 16 10 23 -9 27 -76 4 -49 1 -64 -13 -75 -9 -8 -11 -12
-4 -8 13 7 14 -1 3 -30 -7 -19 -9 -18 -22 5 -7 14 -14 28 -15 33 -1 4 -3 8 -4
10 -1 1 -4 11 -6 22 -8 50 -12 60 -30 69 -10 6 -24 18 -31 26 -11 13 -12 13
-13 -2 0 -29 -39 -22 -46 7 -3 14 -12 25 -20 25 -8 0 -14 6 -14 13 0 9 -2 9
-9 -1 -7 -11 -9 -11 -14 2 -4 10 -1 16 8 16 11 0 10 7 -6 35 -11 19 -18 39
-14 45 7 12 16 14 13 3z m285 -154 c3 -13 1 -19 -6 -16 -7 2 -12 8 -12 13 0 5
-4 15 -8 21 -5 9 -3 11 6 7 8 -3 17 -14 20 -25z m-46 -304 c0 -8 -4 -15 -9
-15 -10 0 -11 14 -1 23 9 10 10 9 10 -8z"/>
<path d="M4290 3870 c0 -5 5 -10 10 -10 6 0 10 5 10 10 0 6 -4 10 -10 10 -5 0
-10 -4 -10 -10z"/>
<path d="M4380 3849 c0 -16 17 -18 35 -5 17 13 17 14 -8 14 -15 0 -27 -4 -27
-9z"/>
<path d="M3736 4125 c-12 -9 -17 -22 -13 -35 3 -11 1 -17 -4 -14 -6 3 -7 -11
-3 -36 7 -40 6 -42 -14 -31 -11 6 -23 15 -25 21 -15 30 2 -12 24 -57 22 -49
47 -75 32 -35 -6 15 -5 15 10 4 14 -12 17 -10 23 15 4 15 10 30 14 33 3 3 3
16 -1 30 -4 14 -7 18 -8 9 -1 -9 -9 -23 -18 -30 -15 -11 -16 -11 -5 1 6 8 12
18 12 23 0 4 -6 5 -12 1 -7 -4 -5 2 5 13 18 21 23 38 8 29 -5 -3 -12 1 -15 10
-9 23 -7 36 4 29 6 -3 10 0 10 7 0 10 3 9 11 -2 9 -12 10 -12 5 3 -3 10 -6 21
-6 23 0 8 -15 3 -34 -11z m11 -162 c8 -22 -26 -8 -37 15 -11 24 -10 25 11 10
13 -8 24 -19 26 -25z"/>
<path d="M4130 4105 c0 -14 2 -25 4 -25 2 0 11 -3 20 -6 14 -5 14 -3 0 25 -19
38 -24 39 -24 6z"/>
<path d="M4826 4075 c-11 -8 -37 -15 -58 -15 -21 0 -38 -2 -38 -5 0 -3 12 -18
26 -33 14 -15 37 -47 52 -72 14 -25 29 -47 33 -50 3 -3 9 -12 12 -20 15 -41 5
26 -11 73 -22 61 -19 77 14 77 20 0 24 5 24 30 0 34 -21 40 -54 15z"/>
<path d="M3695 4040 c3 -5 8 -10 11 -10 2 0 4 5 4 10 0 6 -5 10 -11 10 -5 0
-7 -4 -4 -10z"/>
<path d="M18 4023 c-13 -3 -18 -14 -18 -36 l1 -32 20 28 c11 15 27 27 35 27 9
0 12 5 9 10 -6 10 -17 11 -47 3z"/>
<path d="M1560 4014 c0 -15 66 -66 92 -71 15 -3 25 -9 22 -14 -3 -5 2 -9 11
-9 9 0 29 -7 43 -15 50 -27 137 -64 162 -68 14 -3 39 -8 55 -11 29 -6 29 -6 5
5 -14 6 -61 29 -105 50 -44 21 -120 57 -170 80 -49 23 -91 46 -93 51 -4 9 -22
11 -22 2z"/>
<path d="M3780 3971 c0 -6 4 -13 10 -16 6 -3 7 1 4 9 -7 18 -14 21 -14 7z"/>
<path d="M3908 3941 c-33 -19 -44 -41 -20 -41 15 1 59 47 50 54 -1 2 -15 -4
-30 -13z"/>
<path d="M3773 3938 c3 -9 1 -18 -5 -20 -16 -6 -2 -38 17 -38 21 0 20 44 -2
61 -15 12 -16 12 -10 -3z"/>
<path d="M2851 3905 c0 -11 4 -29 9 -40 l9 -20 0 20 c0 11 -4 29 -9 40 l-9 20
0 -20z"/>
<path d="M3061 3886 c-1 -21 -7 -64 -15 -95 -8 -31 -16 -83 -19 -116 -2 -33
-8 -69 -13 -80 -6 -11 -11 -33 -13 -50 -6 -87 -17 -139 -31 -143 -12 -4 -13
-3 -2 10 9 11 10 22 2 39 -10 23 -10 23 -6 2 4 -23 -8 -31 -19 -13 -3 6 -15
10 -25 10 -10 0 -21 8 -23 18 -3 9 -5 -14 -6 -52 -1 -62 14 -133 30 -146 13
-11 43 -76 40 -89 -1 -8 2 -10 10 -5 9 5 10 2 6 -10 -4 -10 -8 -32 -8 -49 -2
-28 -2 -29 -6 -7 -3 14 -13 34 -23 45 -10 11 -23 31 -29 45 -9 22 -10 19 -10
-22 -1 -27 -5 -48 -11 -48 -5 0 -10 5 -10 11 0 5 -4 7 -10 4 -5 -3 -10 -1 -10
4 0 6 -4 11 -10 11 -5 0 -10 -11 -10 -25 0 -21 5 -25 30 -25 l30 0 0 -76 c0
-68 -2 -75 -17 -69 -47 18 -363 37 -440 26 -111 -17 -231 -86 -279 -163 -30
-47 -42 -82 -60 -183 l-13 -70 5 67 c6 76 24 150 47 193 l15 30 -106 17 c-59
10 -125 21 -147 23 -22 3 -51 8 -65 11 -14 3 -59 9 -100 14 -143 16 -304 41
-323 52 -14 7 -17 7 -13 -1 4 -6 0 -11 -10 -11 -13 0 -15 -7 -11 -32 11 -65
29 -295 24 -314 -3 -12 -5 -7 -6 13 -1 25 -5 31 -16 27 -10 -4 -13 -13 -10
-25 5 -14 2 -17 -9 -13 -9 3 -16 15 -16 25 0 13 -5 16 -16 12 -8 -3 -13 -12
-10 -19 3 -7 0 -16 -6 -20 -14 -9 13 -25 32 -19 11 3 16 -2 16 -16 0 -17 -5
-20 -29 -15 -16 3 -40 6 -53 6 -17 0 -24 6 -24 18 0 10 -8 26 -17 35 -71 66
-73 67 -73 37 0 -24 -21 -70 -32 -70 -11 0 -10 61 1 79 6 9 5 22 -2 34 -9 15
-9 21 1 24 6 3 12 11 12 19 0 8 6 14 13 14 8 0 9 3 1 8 -16 10 -14 44 2 38 8
-3 20 2 28 10 10 9 24 12 41 8 31 -8 32 5 0 31 -18 15 -21 21 -10 30 20 15 30
57 13 54 -36 -4 -66 3 -84 21 -33 33 -43 48 -37 54 4 3 1 6 -5 6 -17 0 -25
-19 -13 -33 5 -7 9 -27 9 -45 -1 -39 -17 -41 -75 -8 -34 20 -43 21 -47 9 -6
-16 48 -43 86 -43 37 0 68 -27 66 -56 -3 -30 -48 -58 -84 -51 -13 2 -21 0 -18
-4 3 -5 -2 -9 -10 -9 -9 0 -16 9 -16 20 0 19 -4 20 -50 14 -36 -5 -55 -3 -67
7 -15 13 -16 12 -8 -6 4 -11 8 -28 9 -38 0 -15 7 -18 32 -15 29 3 31 2 23 -14
-6 -12 -6 -18 0 -18 5 0 13 10 16 21 5 14 10 18 14 10 4 -6 21 -11 37 -11 16
1 46 -5 66 -12 35 -12 38 -15 32 -44 -3 -18 -7 -45 -8 -61 -1 -15 -7 -37 -13
-47 -10 -19 -109 -56 -129 -49 -7 2 -9 23 -6 53 6 67 -15 67 -24 0 l-7 -50
-36 6 c-67 11 -68 12 -75 66 -8 56 -3 65 34 70 36 4 42 48 6 48 -21 0 -24 4
-20 27 3 15 10 33 16 40 7 8 7 13 0 13 -5 0 -12 9 -15 20 -4 14 2 23 21 32 14
7 27 18 29 25 8 24 -53 -16 -68 -44 -8 -16 -17 -30 -20 -33 -4 -3 -18 -23 -33
-44 -14 -21 -27 -36 -27 -32 -1 3 -2 10 -3 15 -2 18 -16 24 -30 12 -12 -10
-17 -9 -25 7 -8 15 -6 23 9 37 21 19 27 45 9 45 -5 0 -8 -3 -6 -7 6 -10 -19
-34 -27 -26 -3 4 -6 13 -6 21 0 9 3 12 6 9 4 -3 16 0 28 8 11 8 33 15 48 15
22 0 28 5 28 23 0 40 13 47 105 63 72 13 96 34 110 93 7 26 23 33 18 8 -6 -28
9 -41 36 -32 17 5 17 7 2 40 -9 19 -24 37 -34 41 -11 3 -16 12 -13 21 3 8 6
23 6 33 0 15 9 19 48 22 48 3 65 20 25 26 -19 3 -23 10 -23 41 0 60 -50 143
-64 106 -10 -27 -123 6 -128 37 -4 31 -23 32 -36 3 -10 -22 -15 -24 -33 -14
-16 8 -20 17 -16 37 4 22 -2 34 -30 59 -29 27 -38 31 -55 22 -17 -9 -19 -17
-13 -47 4 -21 11 -38 16 -40 5 -2 9 -11 9 -20 0 -13 2 -14 8 -4 5 7 16 10 24
7 13 -5 15 -18 12 -63 -8 -94 -11 -100 -37 -95 -22 4 -29 -5 -75 -95 -47 -90
-52 -108 -58 -186 l-7 -86 31 0 c44 0 62 9 55 28 -13 36 -40 41 -46 10 -3 -14
-5 -7 -6 16 -1 35 1 38 22 31 12 -3 43 -9 69 -12 79 -9 90 -48 17 -59 -22 -4
-42 -11 -45 -15 -3 -5 -14 -9 -25 -9 -23 0 -26 -35 -4 -47 14 -8 14 -11 0 -28
-15 -20 -15 -20 -37 5 -20 24 -21 24 -16 3 3 -12 1 -24 -5 -26 -13 -4 -47 34
-47 52 0 13 -2 14 -61 16 -31 1 -56 9 -74 23 -15 12 -36 22 -45 22 -24 0 -57
50 -39 60 6 5 18 6 26 3 9 -4 11 0 7 11 -3 9 -1 16 5 16 6 0 11 -4 11 -10 0
-5 9 -19 20 -30 11 -11 20 -27 20 -35 0 -21 38 -19 43 3 4 15 5 15 13 -3 7
-15 19 -20 51 -20 43 0 47 5 29 47 -4 9 -4 23 1 30 4 7 8 27 9 43 2 63 4 76
12 71 4 -3 7 10 6 27 -1 18 3 35 9 39 9 6 9 8 0 8 -7 0 -13 6 -13 13 1 6 9 2
19 -10 l19 -23 21 36 c12 19 21 38 21 42 0 4 7 20 15 36 15 28 14 31 -12 58
-26 27 -56 40 -35 15 12 -14 4 -97 -9 -97 -5 0 -8 24 -8 53 2 52 -3 64 -51
145 -18 30 -19 35 -5 48 11 11 12 20 5 34 -14 26 -30 34 -43 21 -7 -7 -5 -16
8 -31 18 -20 18 -21 0 -34 -12 -8 -27 -11 -39 -6 -28 10 -31 26 -6 33 20 5 20
6 3 36 -12 21 -24 30 -35 27 -33 -8 -64 66 -33 78 13 4 15 2 10 -13 -9 -28 20
-33 42 -8 26 30 29 77 5 77 -10 0 -23 5 -30 12 -9 9 -13 7 -18 -8 -13 -33 -48
-63 -82 -70 -27 -5 -36 -2 -53 20 -22 28 -39 26 -39 -5 0 -13 -7 -19 -25 -20
-14 -1 -29 -3 -35 -4 -5 -1 -14 -3 -20 -4 -6 -1 -6 -10 0 -25 7 -19 5 -25 -8
-29 -9 -2 -30 -30 -47 -62 -16 -31 -36 -60 -44 -63 -29 -11 -51 -37 -51 -59 0
-17 4 -21 17 -16 17 7 17 6 0 -20 -9 -14 -17 -37 -16 -49 1 -20 3 -19 15 10 8
17 16 32 19 32 12 0 -6 -75 -20 -82 -8 -5 -15 -18 -15 -28 0 -18 6 -19 76 -15
42 3 81 2 86 -1 15 -9 -12 -24 -44 -24 -15 0 -31 -7 -36 -17 -7 -12 -18 -15
-46 -10 l-36 6 0 -65 c0 -36 4 -63 9 -60 5 3 12 -1 15 -10 4 -11 13 -14 30
-10 14 3 28 1 31 -5 4 -6 13 -8 21 -5 8 3 14 -1 14 -9 0 -18 26 -20 33 -2 3 7
6 5 6 -5 1 -11 6 -15 15 -12 11 4 13 0 9 -15 -7 -26 -63 -31 -63 -6 0 8 -5 15
-11 15 -7 0 -8 -11 -4 -30 8 -38 -3 -90 -20 -90 -24 0 -37 27 -25 49 8 16 7
27 -2 44 -12 21 -13 20 -16 -16 -3 -34 -5 -36 -24 -26 -20 11 -21 9 -15 -27 4
-21 11 -40 17 -42 17 -6 11 -22 -7 -22 -14 0 -15 -2 -4 -9 7 -5 10 -15 7 -22
-4 -8 -1 -6 7 4 13 16 14 16 14 -8 0 -14 -2 -24 -4 -21 -8 8 -33 -21 -33 -38
0 -8 10 -22 23 -31 l22 -15 -22 -6 -23 -6 0 -490 c0 -299 4 -487 9 -483 5 3
12 1 16 -5 3 -6 -1 -13 -9 -16 -13 -5 -16 -24 -16 -96 0 -57 4 -87 10 -83 6 3
10 -1 10 -9 0 -9 -4 -16 -10 -16 -6 0 -10 -97 -10 -271 0 -177 3 -268 10 -264
6 3 10 -3 10 -14 0 -12 -4 -21 -10 -21 -6 0 -10 -113 -10 -312 l1 -313 32 -23
c26 -18 33 -20 35 -7 5 21 19 19 25 -5 3 -13 14 -20 30 -20 22 0 28 7 40 48
16 52 22 29 8 -31 -8 -31 -6 -39 9 -47 33 -18 48 -12 42 16 -3 20 0 26 17 31
17 4 21 13 21 45 0 27 -4 38 -12 36 -7 -3 -24 1 -37 8 -18 10 -27 10 -32 2
-10 -17 -21 29 -13 54 4 13 12 27 19 33 18 14 25 65 12 86 -17 27 0 35 31 17
26 -16 28 -16 29 3 2 17 -5 19 -62 19 -46 0 -68 -5 -80 -16 -12 -12 -19 -14
-27 -6 -7 7 -9 14 -6 17 14 15 117 43 147 41 l34 -2 -6 100 c-4 56 -9 195 -13
311 -3 116 -10 222 -16 238 -7 19 -7 31 1 40 12 16 -17 146 -39 172 -7 9 -10
19 -6 23 4 4 13 -1 21 -11 12 -17 13 -16 18 2 2 11 0 113 -5 228 -8 169 -13
210 -26 220 -13 11 -13 13 -1 13 12 0 12 2 0 9 -9 6 -10 10 -2 12 13 5 21 54
14 90 -4 21 -9 25 -29 21 -18 -3 -23 -1 -19 10 3 7 -4 23 -15 35 -11 12 -20
26 -20 31 0 5 -12 14 -26 20 -33 16 -22 32 22 32 19 0 34 5 34 10 0 7 6 7 19
0 11 -5 23 -10 27 -10 4 0 4 71 1 157 -7 151 -10 165 -40 175 -4 2 -5 18 -1
36 4 19 12 31 18 29 8 -3 10 9 7 35 -2 29 -9 42 -22 45 -11 3 -20 13 -20 22
-3 39 -1 93 5 98 3 3 0 13 -6 22 -10 12 -8 12 8 -1 30 -26 37 -22 31 15 -2 17
-1 42 4 55 5 14 5 22 -2 22 -6 0 -8 4 -5 9 9 14 60 10 79 -7 9 -8 17 -27 17
-41 1 -22 2 -24 11 -9 9 17 12 17 39 -3 15 -12 33 -19 38 -15 21 13 24 -17 4
-44 -11 -15 -22 -42 -24 -59 -2 -18 -9 -35 -14 -39 -14 -9 -38 -53 -40 -72 -1
-8 -4 -24 -7 -35 -6 -17 -2 -20 23 -19 32 1 56 14 26 14 -12 0 -16 7 -14 23 4
30 43 36 51 8 3 -12 2 -21 -3 -21 -4 0 -10 -9 -13 -20 -3 -10 -2 -19 2 -18 6
1 23 -5 69 -23 13 -5 30 -6 39 -1 14 8 13 10 -1 15 -24 10 -19 27 7 23 12 -3
25 -5 28 -5 3 -1 11 -12 17 -25 9 -19 8 -27 -4 -36 -8 -7 -14 -20 -14 -29 -1
-11 -8 -7 -26 14 l-26 30 15 -30 c13 -26 13 -35 2 -62 -7 -17 -11 -34 -8 -37
4 -3 1 -6 -5 -6 -6 0 -13 -13 -17 -29 -14 -64 -87 -80 -127 -28 -14 18 -18 19
-18 5 0 -9 5 -20 10 -23 6 -4 7 -11 4 -17 -4 -6 -3 -8 2 -5 6 3 16 2 24 -4 12
-7 10 -9 -7 -9 -18 0 -23 -8 -29 -45 -3 -25 -4 -49 0 -52 3 -4 35 -6 71 -5 36
1 65 -2 65 -7 0 -5 -8 -7 -19 -4 -15 4 -20 -3 -27 -44 -4 -26 -8 -54 -7 -60 0
-7 -4 -13 -10 -13 -14 0 2 -15 16 -15 7 0 11 -9 9 -19 -2 -10 1 -15 6 -12 6 3
8 -2 5 -14 -5 -18 -14 -24 -33 -22 -3 0 -6 -8 -6 -18 0 -13 4 -16 12 -9 8 6
10 2 8 -17 -2 -21 1 -25 17 -21 10 3 17 1 13 -4 -3 -5 0 -9 7 -9 8 0 9 -3 0
-13 -6 -8 -7 -18 -3 -22 4 -5 1 -5 -6 -1 -7 5 -11 14 -8 22 3 8 0 14 -7 14
-19 0 -18 -71 3 -236 22 -178 29 -226 35 -233 3 -2 5 12 5 33 0 36 1 37 21 22
12 -8 27 -12 34 -10 6 3 18 -2 25 -11 10 -12 16 -13 26 -4 20 16 18 21 -21 72
-37 48 -45 73 -21 64 8 -3 22 3 32 14 9 10 19 17 22 14 12 -12 32 20 32 51 0
19 5 34 11 34 5 0 7 -4 4 -10 -3 -5 -1 -18 4 -27 6 -10 11 -12 11 -5 0 6 7 12
15 12 8 0 15 5 15 10 0 6 5 10 10 10 6 0 10 -17 10 -38 0 -32 5 -41 33 -57 17
-10 38 -25 46 -33 11 -11 15 -11 22 0 16 24 9 59 -16 82 -32 30 -32 44 1 52
21 5 25 11 21 31 -3 18 -1 21 6 14 14 -14 30 -14 21 0 -4 8 1 9 16 4 15 -5 20
-4 16 4 -5 7 4 10 27 9 19 -2 33 -6 31 -10 -3 -4 5 -6 16 -5 29 2 25 10 -17
35 -21 12 -33 22 -26 22 7 0 10 7 7 15 -4 9 3 19 20 26 25 12 30 20 27 48 -2
7 2 10 8 6 6 -3 11 0 11 7 0 7 12 0 25 -15 14 -15 25 -24 25 -19 0 5 -7 15
-15 22 -20 17 -19 31 2 23 10 -4 14 -2 10 4 -7 11 23 23 60 23 15 0 23 -7 26
-22 4 -20 4 -19 6 5 1 24 5 27 39 27 54 0 142 28 142 45 0 18 -22 24 -37 10
-13 -13 -141 -31 -150 -21 -3 3 0 7 8 10 8 2 55 16 104 31 50 15 99 33 110 40
11 6 39 14 63 18 l44 5 -33 -24 c-18 -13 -37 -24 -42 -24 -5 0 -21 -10 -35
-21 l-27 -21 25 7 c14 5 37 9 53 10 35 2 48 15 16 15 -22 1 -21 3 11 19 32 18
66 18 55 1 -3 -4 18 1 47 12 34 12 60 17 77 12 14 -4 29 -7 34 -6 6 2 11 -43
10 -85 -1 -7 2 -11 6 -9 3 2 22 -21 41 -50 36 -56 62 -71 100 -59 19 6 22 12
17 44 -5 35 -2 30 19 -24 8 -22 11 -31 13 -42 1 -5 5 -2 10 6 6 9 5 24 0 39
-5 14 -7 27 -4 30 3 3 5 -1 5 -9 0 -12 2 -12 9 0 7 11 10 9 16 -8 8 -25 42
-28 47 -3 2 9 7 -39 11 -108 4 -69 10 -145 13 -170 4 -25 6 -49 6 -55 -4 -69
-14 -170 -18 -176 -2 -4 0 -27 6 -51 6 -24 13 -61 16 -83 l5 -40 -26 30 c-31
36 -46 68 -34 75 5 3 10 17 11 30 3 22 -1 25 -48 31 -59 8 -94 24 -94 44 0 8
-5 15 -11 15 -6 0 -21 10 -34 22 -22 21 -22 22 -4 42 11 11 19 25 19 30 0 19
76 49 104 42 32 -8 32 2 5 48 l-21 36 -89 0 c-64 0 -89 -3 -89 -12 0 -61 25
-328 33 -348 6 -14 9 -33 8 -42 -1 -10 5 -68 13 -130 26 -192 39 -388 32 -475
-7 -79 -26 -150 -38 -138 -3 3 -4 -5 -3 -17 2 -20 -2 -23 -36 -24 -21 -1 -37
2 -34 6 3 4 -2 11 -11 14 -22 8 -31 7 -16 -2 7 -5 14 -18 17 -31 3 -18 0 -21
-15 -16 -24 8 -42 -22 -27 -46 8 -13 16 -15 33 -8 17 6 22 5 18 -5 -4 -10 7
-12 43 -11 27 1 57 -4 68 -12 11 -7 22 -13 26 -13 12 0 16 49 5 54 -7 3 -7 5
2 5 7 1 12 14 12 34 0 36 -13 62 -27 54 -5 -3 -15 -2 -23 4 -14 8 -7 11 16 8
4 0 11 5 16 13 7 10 11 10 15 1 7 -19 24 -16 52 10 14 12 20 15 14 7 -9 -12
-7 -20 7 -38 21 -25 37 -27 64 -7 28 22 37 18 30 -10 -5 -20 -1 -27 17 -34 13
-5 27 -7 32 -4 9 5 9 2 14 -77 9 -147 12 -167 33 -215 13 -31 19 -61 16 -77
-5 -27 -4 -28 34 -28 33 0 40 4 44 23 3 12 7 31 9 42 3 11 5 1 6 -22 l1 -43
43 0 44 0 21 92 c43 188 46 250 33 542 -6 149 -14 289 -16 311 -5 38 -4 39 5
10 15 -44 33 -438 27 -595 -5 -116 -26 -259 -52 -339 l-6 -21 377 0 377 0 -6
68 c-4 37 -9 117 -12 177 -3 61 -8 139 -11 174 -9 123 -24 534 -19 541 2 4 0
34 -6 66 -15 85 -17 104 -23 259 -3 77 -8 177 -12 221 -3 49 -2 84 4 88 5 3
13 44 17 91 4 47 11 98 15 113 l8 27 2 -25 c2 -14 4 -34 6 -45 2 -11 8 -94 13
-185 5 -91 13 -190 17 -220 14 -110 22 -80 16 64 -4 120 -2 150 9 157 11 7 12
11 1 17 -14 10 -14 99 0 108 4 3 8 -2 8 -10 0 -9 5 -16 11 -16 5 0 7 6 3 13
-5 8 -4 9 4 2 6 -5 13 -30 16 -55 2 -25 8 -73 12 -107 9 -83 32 -82 35 0 1 18
3 24 6 15 2 -10 8 -18 13 -18 17 0 30 -62 40 -200 6 -80 15 -190 20 -245 5
-55 14 -185 20 -290 6 -104 13 -200 15 -213 3 -13 10 -101 15 -195 14 -263 22
-372 27 -377 3 -3 11 4 19 15 10 13 13 32 9 56 -6 35 -5 37 27 43 18 4 45 9
59 12 15 3 29 1 33 -4 9 -15 -4 -42 -19 -42 -14 0 -65 -55 -65 -71 0 -5 25 -9
57 -9 55 0 58 2 114 55 92 88 154 105 208 59 26 -22 31 -33 31 -70 l0 -44 150
0 c167 0 154 -6 150 74 -1 28 2 37 12 34 7 -3 14 -14 16 -26 2 -11 10 -26 18
-33 21 -17 62 3 70 35 8 34 -1 59 -42 108 -52 62 -74 111 -74 165 0 76 5 98
19 95 7 -1 18 2 25 7 14 12 78 17 93 8 6 -4 13 -3 15 2 1 5 12 11 23 13 18 3
20 -3 23 -66 3 -63 1 -68 -13 -56 -9 8 -23 26 -31 42 -14 28 -46 37 -69 20
-18 -12 -35 -61 -28 -79 4 -10 25 -40 48 -68 84 -104 103 -157 75 -211 -21
-40 -28 -44 -87 -44 -29 0 -53 -4 -53 -8 0 -12 488 -16 503 -4 33 26 326 90
348 76 5 -3 9 13 9 35 0 44 -2 46 -30 31 -31 -17 -69 8 -98 64 -24 47 -27 61
-27 166 0 150 18 203 79 231 22 10 49 19 59 19 16 0 17 63 17 1190 l0 1190
-42 -5 c-24 -3 -169 -17 -323 -30 -154 -14 -395 -37 -535 -50 -140 -13 -291
-27 -335 -30 -44 -3 -136 -12 -205 -20 -154 -18 -277 -29 -585 -55 -132 -12
-248 -23 -257 -26 -13 -4 -18 -16 -19 -42 l-1 -37 -9 42 c-13 55 -29 66 -108
75 -36 4 -104 13 -151 20 l-85 13 25 23 c13 12 31 22 39 22 8 0 24 8 35 19 44
39 301 54 461 27 106 -18 117 -23 104 -47 -9 -18 -6 -19 51 -19 35 0 60 4 60
11 0 6 13 8 33 5 17 -3 86 0 152 6 l120 12 -70 7 c-217 22 -267 26 -290 21
-16 -3 -25 0 -25 8 0 10 21 11 88 6 48 -4 121 -9 163 -12 l76 -6 -4 34 c-3 18
-13 78 -23 133 -10 55 -22 121 -25 148 l-7 47 46 0 c31 0 45 -4 41 -11 -4 -6
-13 -8 -20 -5 -7 2 -18 -1 -25 -7 -10 -9 -11 -9 -6 1 4 6 3 12 -2 12 -15 0
-21 -37 -9 -49 14 -14 34 -14 39 1 6 17 42 19 86 4 29 -11 40 -11 38 -3 -3 21
-15 34 -37 40 -16 4 -19 2 -15 -10 6 -14 4 -14 -11 -2 -10 7 -19 14 -21 15 -2
1 9 30 23 64 14 34 24 65 21 68 -3 3 4 14 17 25 l22 20 -22 -6 c-16 -3 -23 -1
-23 10 0 9 6 13 15 9 11 -4 15 2 15 22 0 27 -20 70 -20 45 0 -7 -4 -13 -10
-13 -5 0 -7 6 -4 14 4 9 -3 16 -18 19 l-23 4 22 8 c18 6 20 11 12 32 -10 26
-13 90 -4 81 3 -3 8 -18 11 -34 6 -32 14 -45 14 -22 0 17 -19 120 -23 124 -1
1 -43 -8 -92 -21 -50 -13 -93 -20 -96 -17 -12 15 -51 116 -59 155 l-8 42 -1
-39z m94 -258 c7 -60 23 -118 24 -90 2 29 59 -50 67 -92 5 -30 -3 -33 -22 -8
-11 14 -13 15 -14 2 0 -9 5 -21 12 -28 9 -9 8 -12 -6 -12 -13 0 -16 -5 -11
-19 3 -11 1 -22 -5 -26 -6 -3 -8 -11 -5 -16 4 -5 2 -9 -3 -9 -4 0 -18 -24 -31
-52 -12 -29 -43 -91 -69 -138 -43 -80 -46 -83 -54 -58 -7 19 -5 35 7 57 9 18
11 31 5 31 -5 0 -10 18 -10 40 0 22 5 40 10 40 6 0 10 5 10 11 0 6 -10 8 -22
5 l-23 -6 23 11 c12 7 22 17 23 23 0 6 3 20 6 31 2 11 6 42 7 68 2 38 -1 47
-13 46 -31 -3 -41 1 -41 15 0 20 57 60 65 46 3 -5 -1 -10 -10 -10 -9 0 -14 -4
-10 -10 3 -5 12 -7 20 -3 8 3 15 0 15 -6 0 -6 -6 -11 -12 -11 -7 0 -4 -6 6
-12 15 -9 22 -7 32 7 12 17 14 17 20 1 3 -9 4 -27 2 -41 -3 -13 -1 -22 4 -19
4 3 12 -5 17 -18 14 -35 13 -2 -4 82 -18 93 -33 240 -24 234 4 -2 10 -32 14
-66z m-2715 6 c0 -8 -5 -12 -10 -9 -6 4 -8 11 -5 16 9 14 15 11 15 -7z m2803
-1 c-7 -2 -13 -11 -13 -19 0 -15 -9 -17 -35 -8 -14 6 -13 9 7 19 13 7 30 13
38 13 10 0 11 -1 3 -5z m64 -29 c-3 -3 -12 -4 -19 -1 -8 3 -5 6 6 6 11 1 17
-2 13 -5z m-57 -25 c0 -4 -5 -11 -10 -14 -6 -4 -8 -11 -5 -16 4 -5 -1 -9 -9
-9 -8 0 -21 12 -28 28 l-14 28 33 -4 c18 -2 33 -8 33 -13z m-180 -43 c0 -3 -4
-8 -10 -11 -5 -3 -10 -1 -10 4 0 6 5 11 10 11 6 0 10 -2 10 -4z m-2695 -36 c3
-5 1 -10 -4 -10 -6 0 -11 5 -11 10 0 6 2 10 4 10 3 0 8 -4 11 -10z m10 -46
c14 -14 27 -39 29 -55 3 -24 0 -29 -19 -29 -12 0 -28 -7 -35 -15 -15 -18 -46
-20 -56 -4 -5 8 -10 6 -16 -5 -7 -12 -21 -16 -54 -14 -24 2 -44 6 -44 9 0 8
-42 20 -48 14 -3 -3 6 -13 19 -24 13 -11 18 -20 12 -21 -7 0 -13 -7 -13 -15 0
-8 -5 -15 -11 -15 -6 0 -22 -9 -36 -20 -14 -11 -36 -20 -48 -20 -19 0 -21 4
-17 26 3 15 13 29 22 31 10 3 20 16 23 29 3 20 0 24 -19 24 -13 0 -24 5 -24
11 0 6 9 9 20 6 20 -5 21 -2 34 56 7 28 31 37 39 15 3 -10 7 -10 19 -1 8 7 18
10 21 6 4 -3 18 4 31 16 14 13 29 20 35 16 6 -3 11 -2 11 4 0 13 60 19 82 9
10 -5 29 -20 43 -34z m2931 -47 c0 -16 -2 -16 -12 -3 -6 9 -14 13 -17 9 -4 -3
-7 -1 -7 5 0 6 8 10 18 9 10 0 18 -9 18 -20z m-56 -1 c0 -3 -4 -8 -10 -11 -5
-3 -10 -1 -10 4 0 6 5 11 10 11 6 0 10 -2 10 -4z m-2480 -70 c0 -8 -4 -18 -10
-21 -5 -3 -10 3 -10 14 0 12 5 21 10 21 6 0 10 -6 10 -14z m124 -2 c20 -3 36
-8 36 -9 0 -37 -53 -47 -90 -17 -24 19 -20 48 5 38 8 -3 30 -8 49 -12z m-664
-74 c8 -5 12 -11 9 -14 -7 -8 -49 5 -49 15 0 12 21 11 40 -1z m233 -40 c15 -5
33 -7 41 -4 7 3 18 -2 25 -10 10 -12 7 -14 -19 -12 -24 2 -30 -2 -30 -17 0
-28 -40 -95 -67 -112 -29 -20 -48 -10 -97 47 -37 43 -46 84 -24 106 14 14 48
16 48 3 0 -5 9 -7 20 -4 11 3 20 9 20 14 0 9 31 5 83 -11z m-223 -50 c0 -5 -2
-10 -4 -10 -3 0 -8 5 -11 10 -3 6 -1 10 4 10 6 0 11 -4 11 -10z m18 -66 c3
-18 2 -18 -8 -1 -14 23 -57 22 -69 -2 -6 -10 -7 -22 -3 -26 4 -5 1 -5 -5 -1
-20 11 -15 28 14 53 23 21 29 22 47 9 12 -7 22 -22 24 -32z m339 -96 c-2 -13
-4 -3 -4 22 0 25 2 35 4 23 2 -13 2 -33 0 -45z m-141 37 c4 -8 10 -12 15 -9 5
3 9 -2 9 -10 0 -21 -2 -20 -30 9 -13 14 -18 25 -11 25 6 0 14 -7 17 -15z
m2484 -17 c0 -4 -5 -10 -11 -14 -12 -7 -29 12 -29 34 0 10 4 10 20 0 11 -7 20
-16 20 -20z m-2700 -47 c0 -10 -7 -21 -15 -25 -12 -4 -13 -2 -6 13 6 10 7 21
4 25 -3 3 -1 6 5 6 7 0 12 -9 12 -19z m185 -41 c3 -5 1 -10 -4 -10 -6 0 -11 5
-11 10 0 6 2 10 4 10 3 0 8 -4 11 -10z m712 -22 c-3 -7 -5 -2 -5 12 0 14 2 19
5 13 2 -7 2 -19 0 -25z m-337 -153 c0 -26 -5 -45 -11 -45 -6 0 -8 7 -5 16 3 8
2 12 -4 9 -13 -8 -13 21 0 46 16 29 20 23 20 -26z m317 4 c2 -17 -1 -18 -12
-9 -8 7 -12 16 -9 21 9 16 20 10 21 -12z m-566 -18 c30 16 41 7 24 -19 -19
-26 -37 -29 -28 -4 6 14 4 15 -9 5 -18 -15 -28 -7 -28 21 1 19 2 19 11 3 8
-14 14 -15 30 -6z m119 -11 c0 -5 8 -7 18 -4 10 4 13 2 7 -3 -5 -4 -13 -12
-17 -16 -3 -5 -11 1 -18 12 -7 14 -7 21 0 21 5 0 10 -4 10 -10z m-209 -47 c-9
-16 -10 -16 -11 -1 0 9 3 25 7 35 7 16 8 17 11 1 2 -10 -1 -25 -7 -35z m-41
-31 c0 -21 -2 -24 -10 -12 -13 20 -13 53 0 45 6 -3 10 -18 10 -33z m110 12 c0
-8 -4 -14 -10 -14 -5 0 -10 9 -10 21 0 11 5 17 10 14 6 -3 10 -13 10 -21z m50
11 c7 -9 8 -15 2 -15 -5 0 -12 7 -16 15 -3 8 -4 15 -2 15 2 0 9 -7 16 -15z
m41 -12 c-12 -20 -14 -14 -5 12 4 9 9 14 11 11 3 -2 0 -13 -6 -23z m114 -42
c3 -5 1 -12 -5 -16 -5 -3 -10 1 -10 9 0 18 6 21 15 7z m-628 -17 c-3 -3 -12
-4 -19 -1 -8 3 -5 6 6 6 11 1 17 -2 13 -5z m347 -28 c-8 -20 -20 -21 -27 -2
-4 10 -1 13 9 9 7 -3 14 1 14 8 0 7 2 10 5 7 3 -3 3 -13 -1 -22z m126 6 c0
-13 -12 -22 -22 -16 -10 6 -1 24 13 24 5 0 9 -4 9 -8z m74 -4 c-3 -4 3 -8 12
-8 10 0 15 -3 11 -6 -7 -8 -47 5 -47 15 0 4 7 8 15 8 8 0 12 -4 9 -9z m-548
-63 c1 -8 -1 -15 -5 -15 -14 0 -20 12 -14 26 6 17 16 11 19 -11z m734 5 c0
-15 -7 -20 -25 -20 -14 0 -25 5 -25 11 0 6 7 9 15 5 9 -3 15 0 15 9 0 8 5 15
10 15 6 0 10 -9 10 -20z m380 10 c0 -5 -2 -10 -4 -10 -3 0 -8 5 -11 10 -3 6
-1 10 4 10 6 0 11 -4 11 -10z m70 -26 c0 -2 -7 -4 -15 -4 -8 0 -15 4 -15 10 0
5 7 7 15 4 8 -4 15 -8 15 -10z m-445 -34 c3 -5 1 -10 -4 -10 -6 0 -11 5 -11
10 0 6 2 10 4 10 3 0 8 -4 11 -10z m-215 -20 c0 -5 -2 -10 -4 -10 -3 0 -8 5
-11 10 -3 6 -1 10 4 10 6 0 11 -4 11 -10z m40 -10 c0 -5 -2 -10 -4 -10 -3 0
-8 5 -11 10 -3 6 -1 10 4 10 6 0 11 -4 11 -10z m741 -13 c-10 -9 -11 -8 -5 6
3 10 9 15 12 12 3 -3 0 -11 -7 -18z m666 -44 c-2 -16 -4 -5 -4 22 0 28 2 40 4
28 2 -13 2 -35 0 -50z m-1043 31 c5 -14 4 -15 -9 -4 -17 14 -19 20 -6 20 5 0
12 -7 15 -16z m-864 -20 c0 -8 -5 -12 -10 -9 -6 4 -8 11 -5 16 9 14 15 11 15
-7z m370 -37 c0 -8 -7 -14 -15 -14 -25 0 -17 17 13 26 1 1 2 -5 2 -12z m613
-11 c3 -8 -1 -20 -9 -27 -13 -10 -17 -10 -25 2 -6 10 -9 10 -9 2 0 -7 -4 -13
-10 -13 -19 0 -10 22 11 27 16 4 17 8 7 14 -9 6 -7 9 8 9 12 0 24 -6 27 -14z
m330 -25 c4 -4 -13 -8 -38 -9 -43 0 -59 10 -32 22 14 6 59 -2 70 -13z m-102
-24 c-8 -8 -11 -7 -11 4 0 9 3 19 7 23 4 4 9 2 11 -4 3 -7 -1 -17 -7 -23z
m-21 4 c0 -5 -7 -11 -14 -14 -10 -4 -13 -1 -9 9 6 15 23 19 23 5z m-115 -9
c23 -4 -36 -31 -90 -41 -71 -13 -68 -13 -60 -1 17 28 97 50 150 42z m-681 -38
c3 -8 2 -12 -4 -9 -6 3 -10 10 -10 16 0 14 7 11 14 -7z m146 -16 c0 -5 -4 -8
-10 -8 -5 0 -10 10 -10 23 0 18 2 19 10 7 5 -8 10 -18 10 -22z m197 -20 c-3
-8 -6 -5 -6 6 -1 11 2 17 5 13 3 -3 4 -12 1 -19z m167 -5 c3 -10 9 -25 13 -33
3 -8 -5 -4 -20 10 -14 13 -23 28 -21 32 9 13 21 9 28 -9z m-94 -22 c0 -10 -7
-22 -16 -25 -8 -3 -13 -2 -11 2 2 4 7 15 10 25 8 23 17 22 17 -2z m-68 -47
c-7 -37 -19 -37 -18 0 1 20 5 32 12 29 6 -2 9 -15 6 -29z m-269 -1 c-12 -2
-27 -11 -33 -19 -14 -16 -45 -20 -35 -4 3 6 -1 7 -9 4 -9 -3 -14 -10 -11 -14
3 -5 -4 -6 -15 -3 -12 3 -20 0 -20 -7 0 -7 -7 -10 -15 -6 -8 3 -15 1 -15 -4 0
-5 8 -11 18 -13 13 -4 11 -5 -5 -6 -13 0 -23 3 -23 9 0 5 -7 6 -17 3 -11 -4
-14 -3 -9 5 4 6 25 16 47 22 25 7 37 15 33 22 -5 7 -2 9 7 6 8 -3 23 -2 34 3
11 4 36 7 55 7 21 0 26 -2 13 -5z m1164 1 c-3 -3 -12 -4 -19 -1 -8 3 -5 6 6 6
11 1 17 -2 13 -5z m-962 -33 c-3 -6 -11 -11 -17 -11 -6 0 -6 6 2 15 14 17 26
13 15 -4z m923 -38 c2 -40 -1 -54 -8 -47 -16 16 -17 104 -2 104 4 0 9 -26 10
-57z m72 27 c0 -16 -4 -30 -9 -30 -8 0 -9 43 -2 58 5 11 11 -3 11 -28z m-1060
10 c0 -5 -7 -10 -15 -10 -8 0 -15 5 -15 10 0 6 7 10 15 10 8 0 15 -4 15 -10z
m835 -9 c-15 -13 -62 -26 -50 -13 6 5 19 12 30 15 11 3 22 5 25 6 2 0 0 -3 -5
-8z m125 -1 c0 -5 -4 -10 -10 -10 -5 0 -10 5 -10 10 0 6 5 10 10 10 6 0 10 -4
10 -10z m-1310 -79 c0 -28 -5 -53 -11 -56 -7 -5 -9 12 -8 49 3 69 19 75 19 7z
m1048 34 c-8 -8 -68 -25 -68 -19 0 6 41 23 59 23 8 1 12 -1 9 -4z m-732 -132
c9 -24 22 -43 30 -43 8 0 14 -5 14 -11 0 -6 -7 -8 -16 -5 -9 3 -19 6 -24 6 -5
0 -16 31 -24 69 -17 75 -20 119 -5 61 5 -19 17 -54 25 -77z m1087 70 c8 23 15
2 22 -68 4 -50 3 -66 -4 -55 -6 8 -11 22 -11 31 0 8 -13 42 -30 75 -27 55 -28
57 -6 32 16 -17 26 -23 29 -15z m-113 -74 c0 -5 8 -5 17 -2 15 6 16 5 3 -10
-14 -15 -16 -14 -30 6 -8 12 -23 30 -32 39 -10 10 -18 23 -18 30 0 6 14 -4 30
-22 17 -18 30 -37 30 -41z m-1570 -19 c8 -5 11 -10 5 -10 -5 0 -17 5 -25 10
-8 5 -10 10 -5 10 6 0 17 -5 25 -10z m1655 -9 c3 -5 1 -12 -5 -16 -5 -3 -10 1
-10 9 0 18 6 21 15 7z m-1651 -23 c-3 -4 -9 -8 -15 -8 -5 0 -9 4 -9 8 0 5 7 9
15 9 8 0 12 -4 9 -9z m291 2 c3 -5 -1 -10 -10 -10 -9 0 -13 5 -10 10 3 6 8 10
10 10 2 0 7 -4 10 -10z m385 -150 c0 -5 -2 -10 -4 -10 -3 0 -8 5 -11 10 -3 6
-1 10 4 10 6 0 11 -4 11 -10z m-737 -34 c-4 -6 0 -5 9 2 24 19 27 3 8 -45 -15
-42 -16 -42 -38 -27 -16 11 -21 22 -16 36 5 17 3 20 -10 15 -14 -5 -14 -3 -3
16 6 12 16 25 22 29 13 9 36 -12 28 -26z m494 -18 c-3 -7 -5 -2 -5 12 0 14 2
19 5 13 2 -7 2 -19 0 -25z m124 -11 c-8 -8 -11 -7 -11 4 0 20 13 34 18 19 3
-7 -1 -17 -7 -23z m3885 -11 c44 -44 47 -101 9 -156 l-25 -37 35 -76 c19 -41
35 -80 35 -85 0 -5 9 -17 20 -27 11 -10 20 -21 20 -24 0 -6 -80 -31 -98 -31
-5 0 -7 12 -4 28 3 23 -56 182 -75 202 -11 12 10 -178 23 -204 8 -16 14 -30
14 -32 0 -1 -20 -9 -45 -17 -46 -16 -67 -8 -46 17 7 8 4 63 -10 186 -21 187
-26 218 -42 238 -14 17 -3 25 51 38 81 20 101 17 138 -20z m-322 -246 c59 -88
120 -175 136 -194 l31 -34 -55 -30 c-49 -26 -57 -28 -68 -14 -10 12 -10 16 0
19 12 5 17 35 6 45 -3 4 -27 -4 -54 -15 -38 -17 -50 -27 -50 -44 0 -13 4 -23
8 -23 5 0 16 -6 26 -13 17 -13 16 -15 -19 -36 -21 -12 -40 -20 -42 -17 -3 2
-7 46 -9 98 -2 51 -12 163 -23 248 -19 151 -19 170 -1 170 4 0 56 -72 114
-160z m-4160 85 c3 -8 1 -15 -4 -15 -6 0 -10 7 -10 15 0 8 2 15 4 15 2 0 6 -7
10 -15z m3905 -58 c5 -13 16 -29 25 -36 22 -19 21 -45 -1 -36 -67 28 -73 29
-85 17 -10 -10 -7 -22 12 -60 14 -26 54 -102 89 -169 47 -90 69 -123 82 -123
31 0 22 -16 -30 -54 -57 -42 -66 -44 -57 -13 5 16 -16 67 -81 194 -48 95 -91
173 -95 173 -17 0 -35 -57 -30 -94 7 -55 -18 -43 -40 20 -16 43 -17 86 -2 72
3 -3 46 25 97 63 51 38 95 69 100 69 4 0 11 -10 16 -23z m-3929 3 c0 -5 -4
-10 -10 -10 -5 0 -10 5 -10 10 0 6 5 10 10 10 6 0 10 -4 10 -10z m101 -157
c-8 -15 -10 -15 -11 -2 0 17 10 32 18 25 2 -3 -1 -13 -7 -23z m1609 -11 c0 -5
-7 -17 -15 -28 -14 -18 -14 -18 -15 9 0 17 5 27 15 27 8 0 15 -4 15 -8z
m-1613 -69 c-3 -10 -5 -4 -5 12 0 17 2 24 5 18 2 -7 2 -21 0 -30z m-156 2 c5
4 6 -1 3 -9 -8 -20 -24 -11 -23 12 0 11 2 12 6 4 2 -6 9 -10 14 -7z m1663 -25
c27 -19 84 -63 128 -98 70 -57 78 -66 78 -97 0 -34 -12 -46 -26 -24 -4 8 -9 7
-16 -2 -7 -10 -8 -8 -5 8 4 16 1 20 -10 16 -10 -4 -14 -1 -11 7 2 8 -20 34
-51 60 -63 52 -151 147 -151 162 0 13 5 10 64 -32z m2059 -9 c31 -32 35 -40
24 -50 -11 -8 -22 -9 -42 -1 -40 15 -75 -9 -75 -53 0 -50 14 -57 115 -57 137
-1 191 -31 196 -111 3 -42 -13 -72 -64 -124 l-39 -39 -34 37 c-47 50 -43 73 7
47 15 -8 25 -6 49 12 65 48 25 86 -95 89 -44 1 -91 6 -105 11 -32 12 -68 45
-86 79 -21 41 2 107 46 137 19 13 38 32 42 43 10 27 18 24 61 -20z m-3713 -86
c-7 -8 -17 -15 -23 -15 -6 0 -2 7 9 15 25 19 30 19 14 0z m127 -27 c-3 -8 -6
-5 -6 6 -1 11 2 17 5 13 3 -3 4 -12 1 -19z m1780 -55 c-3 -10 -5 -2 -5 17 0
19 2 27 5 18 2 -10 2 -26 0 -35z m-1830 -118 c0 -18 -19 -15 -25 3 -2 7 3 12
11 12 7 0 14 -7 14 -15z m3377 -8 c4 -18 30 -35 114 -74 105 -49 180 -77 234
-88 l27 -5 -21 -48 c-11 -26 -25 -51 -31 -57 -7 -7 -8 -6 -3 2 7 13 -19 43
-38 43 -7 0 -38 14 -69 31 -90 49 -88 29 5 -46 64 -51 84 -72 81 -86 -6 -22
-13 -23 -120 -8 -45 6 -91 9 -104 7 -24 -4 -24 -5 4 -16 15 -7 53 -24 83 -38
41 -19 59 -23 67 -15 6 6 19 11 28 11 15 0 15 -3 0 -45 -17 -49 -25 -54 -40
-26 -6 10 -25 24 -43 32 -18 7 -91 41 -162 75 -105 50 -133 60 -148 51 -25
-16 -29 -6 -14 42 10 36 17 44 39 47 15 1 25 -1 22 -5 -4 -8 39 -13 115 -14
19 0 37 -3 40 -8 4 -6 60 -13 82 -10 8 1 -74 78 -156 146 l-48 40 17 43 c19
47 30 53 39 19z m-1749 -288 c15 -14 -7 -10 -35 7 l-25 15 25 -7 c14 -3 29
-10 35 -15z m29 -4 c3 -8 1 -15 -4 -15 -6 0 -10 7 -10 15 0 8 2 15 4 15 2 0 6
-7 10 -15z m2926 -5 c0 -11 -4 -20 -10 -20 -14 0 -13 -385 1 -412 14 -26 9
-30 -47 -38 -36 -6 -47 -4 -51 8 -4 8 1 20 10 27 13 9 17 29 17 87 l0 74 -47
-6 -48 -5 -3 -84 c-2 -71 0 -85 15 -96 24 -18 18 -21 -54 -29 -55 -6 -63 -5
-63 10 0 9 7 22 15 28 12 9 15 47 16 204 1 171 -1 196 -17 213 -9 10 -15 21
-13 23 2 2 30 7 62 11 59 8 72 0 41 -26 -14 -11 -15 -28 -10 -104 3 -49 6 -92
6 -95 0 -3 20 -4 44 -2 40 4 44 7 50 34 3 17 6 60 6 97 0 55 -3 68 -20 79 -32
20 -23 31 28 35 26 2 53 4 60 5 6 1 12 -7 12 -18z m-2770 -20 c0 -5 -5 -10
-11 -10 -5 0 -7 5 -4 10 3 6 8 10 11 10 2 0 4 -4 4 -10z m2455 -76 c8 -77 1
-91 -20 -41 -18 43 -29 51 -54 38 -24 -13 -41 -83 -47 -191 -9 -147 18 -219
65 -176 11 10 23 31 26 46 6 27 27 45 39 33 3 -4 6 -24 6 -46 0 -31 -6 -45
-31 -68 -41 -38 -86 -39 -121 -1 -57 61 -76 145 -58 263 17 122 35 151 112
182 35 14 66 26 69 27 4 0 10 -30 14 -66z m-1069 -27 c19 9 61 10 70 1 11 -12
-10 -37 -33 -40 -29 -3 -60 -41 -65 -78 -3 -24 -1 -25 69 -31 39 -4 76 -10 81
-13 5 -3 12 4 16 17 3 12 1 24 -4 25 -6 2 -10 12 -10 22 0 16 6 18 38 13 48
-7 59 -18 33 -32 -12 -7 -21 -21 -21 -32 0 -22 32 -39 38 -21 2 8 8 7 19 -4
10 -10 30 -14 61 -12 43 3 46 5 55 37 7 28 5 37 -12 55 -12 12 -21 30 -21 39
0 15 5 14 45 -5 25 -12 45 -28 45 -36 0 -7 -10 -55 -21 -107 l-22 -93 -31 13
c-17 7 -98 23 -181 35 -82 12 -159 27 -170 33 -13 7 -20 7 -23 -2 -2 -6 -13
-11 -24 -11 -12 0 -18 5 -15 13 4 10 11 47 43 206 4 18 8 21 13 12 6 -9 14
-10 27 -4z m-3203 -54 c2 -10 8 -26 12 -35 4 -10 3 -18 -3 -18 -5 0 -12 8 -15
18 -2 9 -8 25 -12 35 -4 9 -3 17 3 17 5 0 12 -8 15 -17z m-26 -98 c0 -9 -9
-14 -23 -13 -13 1 -20 7 -17 15 7 18 40 16 40 -2z m3118 5 c3 -5 1 -10 -4 -10
-6 0 -11 5 -11 10 0 6 2 10 4 10 3 0 8 -4 11 -10z"/>
<path d="M3032 3459 c2 -6 8 -10 13 -10 5 0 11 4 13 10 2 6 -4 11 -13 11 -9 0
-15 -5 -13 -11z"/>
<path d="M3187 3453 c-3 -5 -1 -17 4 -28 7 -17 8 -17 8 8 1 27 -4 34 -12 20z"/>
<path d="M4497 1643 c-4 -4 11 -123 18 -142 11 -27 55 28 55 68 0 62 -8 78
-41 78 -16 0 -31 -2 -32 -4z"/>
<path d="M4222 1298 c2 -42 6 -80 10 -84 8 -7 68 14 68 25 0 6 -68 122 -77
131 -3 3 -3 -30 -1 -72z"/>
<path d="M984 3898 c3 -7 7 -25 10 -40 6 -26 36 -41 36 -18 0 6 -4 10 -9 10
-5 0 -7 9 -4 19 3 13 -2 23 -16 30 -16 9 -20 9 -17 -1z"/>
<path d="M1262 3898 c-16 -16 -15 -72 1 -106 8 -15 14 -42 15 -60 2 -19 10
-48 19 -65 16 -32 18 -42 23 -107 2 -25 4 -29 7 -12 2 12 9 22 14 22 6 0 7
-10 4 -22 -8 -26 -8 -25 -5 -53 l1 -20 9 20 c5 11 9 34 9 50 1 33 42 178 48
171 2 -2 -3 -28 -11 -57 -9 -28 -18 -84 -21 -123 -3 -39 -10 -96 -16 -126 -12
-66 0 -215 18 -215 6 0 15 -3 19 -7 4 -4 13 -3 19 2 9 8 14 6 19 -5 3 -9 0
-15 -9 -15 -7 0 -16 -9 -20 -20 -7 -21 2 -43 14 -36 4 3 13 1 21 -5 13 -7 12
-9 -2 -9 -15 0 -14 -6 10 -45 15 -25 30 -45 33 -45 3 0 6 16 7 35 1 20 -2 34
-6 31 -4 -2 -6 14 -5 37 1 23 2 42 3 42 3 0 8 86 11 175 l3 85 33 -33 c18 -19
31 -37 30 -41 -1 -5 9 -17 22 -28 23 -19 25 -19 59 -1 56 28 58 43 10 57 -51
16 -104 49 -143 91 -28 29 -30 37 -33 120 -2 49 1 109 6 135 9 43 9 45 -7 31
-23 -21 -31 -11 -31 33 -1 32 -2 34 -14 19 -17 -23 -24 -23 -22 -1 0 10 -7 19
-16 21 -14 3 -18 -4 -19 -30 0 -27 -2 -29 -9 -13 -5 14 -8 3 -7 -35 1 -84 -6
-160 -13 -160 -13 0 -19 113 -11 190 6 60 4 82 -8 107 -17 34 -38 42 -59 21z
m192 -616 c-4 -9 -8 -23 -8 -31 -1 -7 -11 -20 -24 -29 -22 -14 -22 -14 -13 12
20 52 44 91 49 78 2 -7 0 -20 -4 -30z"/>
<path d="M1096 3866 c9 -15 21 -22 30 -19 22 8 17 22 -12 33 -35 14 -36 13
-18 -14z"/>
<path d="M1540 3881 c0 -12 74 -91 85 -91 5 0 24 -17 43 -37 41 -45 81 -73
105 -73 31 0 18 19 -43 60 -33 23 -66 50 -73 61 -6 10 -18 19 -25 19 -8 0 -10
5 -6 12 5 7 2 9 -9 5 -11 -4 -14 -2 -10 9 3 9 -2 14 -16 14 -12 0 -21 4 -21 9
0 5 -7 11 -15 15 -8 3 -15 1 -15 -3z"/>
<path d="M2293 3868 c-17 -17 -24 -18 -42 -8 -12 6 -31 8 -41 5 -17 -5 -20
-16 -20 -65 l0 -59 43 -11 c23 -6 55 -15 71 -20 16 -6 44 -10 63 -10 l34 0 -5
93 c-3 50 -6 93 -6 95 0 1 -9 -2 -20 -8 -13 -7 -26 -7 -38 -1 -14 8 -24 5 -39
-11z"/>
<path d="M2442 3875 c-11 -13 -10 -15 7 -15 14 0 19 5 15 15 -7 18 -6 18 -22
0z"/>
<path d="M1220 3821 c0 -12 5 -21 10 -21 6 0 10 6 10 14 0 8 -4 18 -10 21 -5
3 -10 -3 -10 -14z"/>
<path d="M2006 3812 c-3 -5 1 -9 9 -9 8 0 12 4 9 9 -3 4 -7 8 -9 8 -2 0 -6 -4
-9 -8z"/>
<path d="M1041 3791 c-8 -14 -7 -20 3 -24 9 -4 14 3 14 19 0 29 -4 30 -17 5z"/>
<path d="M1905 3786 c13 -13 38 -26 56 -30 31 -6 32 -5 14 8 -11 9 -28 16 -37
16 -10 0 -18 6 -18 13 0 7 -8 13 -19 14 -17 1 -17 -1 4 -21z"/>
<path d="M1077 3783 c-11 -10 -8 -43 3 -43 11 0 -8 -40 -25 -52 -5 -4 -6 -8
-1 -8 5 0 3 -7 -4 -15 -7 -8 -17 -12 -23 -8 -6 4 -8 0 -4 -10 3 -9 3 -16 -1
-16 -4 1 -22 -2 -39 -6 l-33 -7 24 -19 c13 -11 31 -17 39 -13 8 3 22 -2 31
-11 18 -19 14 -48 -11 -77 -11 -13 -12 -21 -3 -37 7 -14 7 -21 0 -21 -5 0 -10
7 -10 16 0 8 -14 20 -30 26 -19 6 -32 19 -36 34 -7 26 -14 30 -30 14 -7 -7
-19 -4 -36 10 -15 11 -34 20 -45 20 -10 0 -24 9 -31 20 -10 16 -16 18 -35 9
-13 -6 -31 -23 -40 -38 -15 -25 -15 -28 4 -39 15 -9 30 -10 65 -1 41 11 47 10
69 -11 13 -13 22 -27 18 -33 -7 -12 14 -1 38 20 13 11 18 10 34 -7 10 -11 18
-33 19 -50 1 -25 3 -27 12 -15 17 23 35 18 82 -20 24 -19 52 -37 63 -40 29 -9
27 -106 -2 -134 -18 -16 -19 -22 -8 -42 12 -23 12 -23 20 -4 7 18 8 19 8 2 1
-11 -7 -35 -16 -54 -12 -26 -14 -40 -6 -52 15 -24 28 -10 26 27 -2 27 2 35 17
39 11 3 20 9 20 13 0 4 11 5 24 3 21 -4 24 -9 19 -37 -7 -47 -3 -100 9 -111 7
-7 8 4 4 38 -4 26 -5 47 -2 47 2 0 19 -15 38 -32 29 -29 33 -39 33 -85 0 -40
5 -58 21 -74 14 -14 24 -17 28 -10 4 6 3 11 -2 11 -14 0 -2 92 14 111 8 8 14
20 14 26 0 13 -35 45 -42 38 -4 -4 -59 99 -88 165 -9 20 -1 40 16 40 8 0 14 5
14 12 0 9 3 9 12 0 7 -7 17 -12 22 -12 6 0 -9 17 -32 38 -23 21 -42 44 -42 52
0 26 -18 -4 -22 -35 l-3 -30 -23 43 c-20 38 -32 47 -56 43 -11 -2 -36 19 -36
30 0 5 7 9 15 9 8 0 15 6 15 13 0 7 3 8 8 2 4 -5 22 -20 40 -33 40 -28 47 -18
40 63 -3 30 -1 55 3 55 16 0 14 36 -3 72 -10 20 -17 52 -17 70 1 30 3 28 14
-17 9 -38 14 -46 20 -32 11 27 -2 87 -22 103 -11 8 -13 13 -5 14 6 0 12 8 11
18 0 10 -3 12 -6 5 -2 -7 -11 -13 -19 -13 -12 0 -13 -10 -8 -51 7 -49 6 -51
-15 -44 -15 4 -21 2 -21 -8 0 -8 -7 -21 -16 -28 -15 -12 -16 -11 -10 9 6 16 3
22 -8 22 -9 0 -16 7 -16 16 0 12 6 15 21 11 11 -3 27 -3 35 0 13 5 13 8 0 28
-10 16 -12 25 -4 33 8 8 1 17 -23 31 -35 21 -60 26 -72 14z m53 -83 c0 -13 -1
-13 -10 0 -5 8 -10 22 -10 30 0 13 1 13 10 0 5 -8 10 -22 10 -30z m-350 -161
c0 -6 -4 -7 -10 -4 -5 3 -10 11 -10 16 0 6 5 7 10 4 6 -3 10 -11 10 -16z m390
17 c0 -2 -7 -9 -15 -16 -12 -10 -15 -10 -15 4 0 9 7 16 15 16 8 0 15 -2 15 -4z
m46 -42 c-4 -21 -3 -41 4 -48 7 -9 7 -21 1 -37 -9 -22 -10 -22 -10 10 -1 24
-5 32 -15 28 -10 -4 -14 3 -14 29 0 19 4 31 9 28 5 -3 12 2 15 10 11 28 16 17
10 -20z m-86 -3 c0 -6 -4 -13 -10 -16 -5 -3 -10 1 -10 9 0 9 5 16 10 16 6 0
10 -4 10 -9z"/>
<path d="M1527 3753 c-4 -6 2 -18 13 -28 23 -21 27 -8 7 20 -8 11 -16 14 -20
8z"/>
<path d="M410 3734 c0 -9 5 -14 12 -12 18 6 21 28 4 28 -9 0 -16 -7 -16 -16z"/>
<path d="M1027 3743 c-12 -11 -8 -23 8 -23 8 0 15 7 15 15 0 16 -12 20 -23 8z"/>
<path d="M3660 3739 c0 -5 5 -7 10 -4 6 3 10 8 10 11 0 2 -4 4 -10 4 -5 0 -10
-5 -10 -11z"/>
<path d="M3551 3695 c-1 -50 18 -178 29 -189 5 -5 20 -10 32 -11 16 -1 22 -8
21 -21 -1 -10 0 -13 3 -6 3 6 10 10 15 6 5 -3 9 1 9 8 0 10 3 9 11 -2 9 -13
10 -12 5 3 -3 11 0 17 9 17 17 0 20 16 4 26 -8 4 -8 9 0 17 15 15 13 48 -4 71
-8 11 -13 28 -9 38 4 13 0 18 -12 18 -14 0 -16 -7 -10 -40 4 -25 2 -40 -4 -40
-5 0 -10 14 -10 30 0 35 -10 38 -27 10 -8 -12 -9 -21 -3 -25 13 -8 13 -75 0
-75 -9 0 -15 22 -11 44 3 17 -22 116 -30 116 -4 0 -10 8 -12 18 -3 9 -5 4 -6
-13z m116 -192 c-9 -9 -20 -13 -24 -9 -4 4 -1 11 7 16 25 16 35 11 17 -7z"/>
<path d="M3856 3713 c-13 -13 -5 -24 27 -37 58 -26 71 -29 127 -26 126 7 155
4 210 -23 63 -31 100 -60 125 -100 10 -15 20 -25 23 -23 3 3 -6 23 -20 43 -13
21 -27 45 -31 55 -8 23 -83 72 -142 93 -36 13 -88 19 -182 21 -72 1 -134 0
-137 -3z"/>
<path d="M942 3687 c-20 -21 -21 -37 -2 -37 13 0 50 42 45 51 -9 14 -20 11
-43 -14z"/>
<path d="M3609 3683 c-11 -15 -11 -16 0 -6 7 6 19 9 26 7 7 -3 16 -1 20 5 11
19 -32 12 -46 -6z"/>
<path d="M4786 3677 c5 -13 43 -31 51 -24 6 7 -14 25 -34 31 -18 6 -22 4 -17
-7z"/>
<path d="M1571 3664 c0 -11 3 -14 6 -6 3 7 2 16 -1 19 -3 4 -6 -2 -5 -13z"/>
<path d="M587 3638 c8 -44 13 -48 13 -10 0 17 -4 34 -10 37 -6 4 -7 -6 -3 -27z"/>
<path d="M4840 3619 c0 -5 9 -9 20 -9 11 0 20 2 20 4 0 2 -9 6 -20 9 -11 3
-20 1 -20 -4z"/>
<path d="M1798 3606 c-26 -19 -23 -22 27 -36 25 -7 48 -17 51 -22 6 -9 75 -40
80 -36 4 5 -52 63 -84 86 -36 25 -50 27 -74 8z"/>
<path d="M3342 3590 c0 -14 2 -19 5 -12 2 6 2 18 0 25 -3 6 -5 1 -5 -13z"/>
<path d="M2547 3554 c-13 -13 -7 -21 48 -63 63 -46 65 -47 65 -25 0 8 -4 13
-9 10 -5 -3 -18 10 -30 29 -14 24 -25 33 -36 29 -10 -4 -15 -2 -13 6 3 14 -15
24 -25 14z"/>
<path d="M2641 3544 c0 -11 3 -14 6 -6 3 7 2 16 -1 19 -3 4 -6 -2 -5 -13z"/>
<path d="M630 3540 c-9 -6 -10 -10 -3 -10 6 0 15 5 18 10 8 12 4 12 -15 0z"/>
<path d="M1268 3524 c-5 -4 -7 -37 -7 -73 1 -36 4 -56 6 -43 4 20 7 21 20 10
14 -11 15 -10 9 9 -4 11 -10 40 -14 63 -4 23 -10 38 -14 34z"/>
<path d="M3890 3491 c0 -6 5 -11 11 -11 5 0 8 -4 5 -9 -3 -5 1 -12 10 -15 9
-3 14 -13 11 -20 -3 -8 -1 -17 6 -20 7 -2 3 -5 -8 -5 -12 -1 -16 -4 -9 -11 10
-10 84 -2 84 9 0 4 -16 15 -35 24 -19 9 -34 22 -33 28 2 6 -7 18 -19 26 -15
10 -23 11 -23 4z"/>
<path d="M575 3480 c-7 -11 43 -46 52 -36 7 7 -25 46 -38 46 -4 0 -10 -4 -14
-10z"/>
<path d="M3415 3459 c-4 -6 -5 -12 -2 -15 2 -3 7 2 10 11 7 17 1 20 -8 4z"/>
<path d="M3357 3423 c-3 -10 -13 -36 -22 -58 -14 -33 -15 -37 -2 -26 18 14 50
101 38 101 -5 0 -11 -8 -14 -17z"/>
<path d="M4622 3369 c-41 -30 -107 -46 -118 -28 -11 18 -19 8 -19 -25 l0 -33
33 25 c27 21 35 23 42 12 7 -12 12 -11 28 3 10 9 34 22 53 28 38 13 59 27 59
40 0 18 -38 8 -78 -22z"/>
<path d="M2625 3327 c-8 -12 -25 -27 -37 -34 -15 -8 -18 -13 -8 -13 10 -1 8
-4 -5 -10 -18 -7 -18 -8 8 -15 53 -14 97 18 97 69 0 24 -39 26 -55 3z"/>
<path d="M1888 3303 c6 -2 18 -2 25 0 6 3 1 5 -13 5 -14 0 -19 -2 -12 -5z"/>
<path d="M1704 3261 c-34 -16 -65 -34 -68 -40 -11 -17 2 -13 63 19 31 17 70
35 87 39 27 9 28 9 4 10 -14 1 -53 -12 -86 -28z"/>
<path d="M2750 3275 c0 -8 4 -15 9 -15 5 0 16 -6 23 -13 10 -11 16 -11 25 -2
8 9 6 15 -9 24 -12 7 -17 8 -13 2 3 -6 1 -11 -4 -11 -6 0 -11 7 -11 15 0 8 -4
15 -10 15 -5 0 -10 -7 -10 -15z"/>
<path d="M4196 3269 c-21 -12 -56 -34 -78 -49 -23 -17 -58 -31 -88 -35 -82
-11 -56 -22 32 -13 l83 8 55 55 c59 59 58 66 -4 34z"/>
<path d="M4394 3248 c-5 -7 -2 -9 9 -5 12 4 14 2 10 -10 -5 -13 -3 -14 15 -4
34 18 36 31 3 31 -16 0 -33 -5 -37 -12z"/>
<path d="M4687 3237 c-3 -8 -23 -18 -44 -22 -21 -4 -42 -10 -48 -14 -31 -24
-87 -17 -107 13 -6 9 -11 -24 -7 -50 0 -4 -5 -10 -12 -15 -8 -4 -10 -11 -6
-15 10 -10 102 14 157 41 25 12 62 28 83 34 33 11 51 31 28 31 -5 0 -16 3 -24
6 -8 3 -17 -1 -20 -9z"/>
<path d="M4360 3211 c0 -5 5 -13 10 -16 6 -3 10 -15 10 -25 0 -10 4 -21 9 -24
13 -8 -1 47 -16 62 -7 7 -13 9 -13 3z"/>
<path d="M2825 3200 c3 -5 8 -10 11 -10 2 0 4 5 4 10 0 6 -5 10 -11 10 -5 0
-7 -4 -4 -10z"/>
<path d="M3470 3206 c0 -2 8 -10 18 -17 15 -13 16 -12 3 4 -13 16 -21 21 -21
13z"/>
<path d="M4820 3190 c0 -10 5 -42 11 -70 8 -39 15 -50 30 -50 16 0 19 7 19 40
0 22 -4 40 -9 40 -5 0 -14 14 -21 30 -14 34 -30 40 -30 10z"/>
<path d="M3620 3164 c0 -14 4 -23 9 -20 5 3 7 15 4 26 -7 28 -13 25 -13 -6z"/>
<path d="M4204 3168 c3 -13 3 -17 0 -10 -7 14 -44 17 -44 2 0 -5 -7 -7 -15 -4
-11 5 -13 -2 -8 -33 3 -22 2 -34 -3 -30 -5 5 -9 14 -10 20 0 7 -2 19 -2 28 -2
13 -11 16 -44 13 -24 -1 -43 -3 -43 -4 0 -1 -23 -3 -160 -15 -38 -3 -73 -11
-77 -18 -6 -9 -8 -9 -8 1 0 18 -36 15 -55 -5 -14 -13 -21 -14 -36 -5 -24 15
-32 15 -23 0 6 -10 4 -10 -7 0 -7 6 -16 12 -20 12 -11 0 -29 -54 -25 -75 3
-11 5 -30 5 -43 1 -12 7 -21 14 -20 6 2 11 -3 9 -9 -2 -15 37 -16 140 -5 52 6
72 13 88 32 11 13 23 20 27 17 3 -4 11 -3 17 2 6 4 29 11 51 14 34 5 38 4 23
-7 -10 -7 -15 -16 -11 -20 4 -4 0 -4 -10 0 -10 4 -17 1 -17 -6 0 -9 23 -10 93
-5 50 4 95 9 100 12 4 2 2 14 -4 26 -10 21 -9 21 10 -1 15 -17 29 -23 53 -20
32 3 33 4 30 42 -3 26 0 36 7 31 7 -3 11 -12 10 -18 -3 -27 2 -47 12 -47 5 0
7 5 4 10 -3 6 -1 10 4 10 6 0 11 -7 11 -16 0 -12 8 -14 48 -9 26 4 55 9 66 12
16 5 16 6 -5 17 -16 8 -25 22 -27 43 -2 17 -10 34 -18 37 -10 4 -14 -4 -15
-32 l-1 -37 -10 43 c-7 32 -6 47 3 58 13 16 4 33 -10 18 -5 -5 -19 -36 -30
-69 -14 -39 -19 -48 -16 -26 3 23 -1 43 -11 60 -12 17 -14 26 -6 29 14 4 16
22 3 22 -5 0 -14 -12 -19 -27 l-10 -28 -1 28 c-1 17 -6 27 -17 27 -11 0 -14
-6 -10 -22z m-444 -62 c0 -3 -4 -8 -10 -11 -5 -3 -10 -1 -10 4 0 6 5 11 10 11
6 0 10 -2 10 -4z m375 -86 c3 -5 -1 -10 -10 -10 -9 0 -13 5 -10 10 3 6 8 10
10 10 2 0 7 -4 10 -10z m-412 -47 c-7 -2 -19 -2 -25 0 -7 3 -2 5 12 5 14 0 19
-2 13 -5z"/>
<path d="M1626 3149 c-26 -17 -51 -28 -54 -25 -9 9 -42 -25 -42 -43 0 -14 2
-14 10 -1 6 10 10 11 10 3 0 -7 -9 -22 -20 -33 -11 -11 -15 -20 -10 -20 5 0 9
-3 8 -7 -10 -30 22 -6 92 70 86 91 88 107 6 56z"/>
<path d="M3256 3055 c5 -104 5 -105 20 -105 8 0 11 6 8 15 -4 8 -1 15 5 15 6
0 11 -5 11 -11 0 -16 48 -2 78 22 14 10 27 17 29 15 7 -6 -45 -54 -64 -59 -26
-7 131 -6 208 2 l65 6 -13 79 c-11 64 -11 81 -1 87 8 5 -4 7 -25 5 -31 -2 -48
-12 -89 -54 -28 -29 -53 -50 -56 -48 -2 3 -7 20 -11 37 -4 18 -13 35 -21 37
-12 4 -13 2 -4 -9 21 -26 20 -53 -2 -71 -12 -10 -24 -18 -27 -18 -3 0 -5 25
-5 56 1 30 -4 60 -11 67 -8 8 -11 7 -11 -6 0 -9 -9 -34 -20 -54 -25 -46 -27
-71 -5 -53 8 7 12 16 9 21 -3 5 0 9 6 9 6 0 8 4 5 10 -3 5 -2 17 3 27 10 16
10 11 3 -64 -1 -7 -8 -13 -17 -13 -8 0 -12 -5 -9 -11 4 -6 -2 -5 -14 3 -11 7
-23 19 -26 26 -2 7 0 10 5 7 6 -3 7 1 4 9 -3 9 -11 13 -16 10 -6 -4 -6 1 1 13
11 22 11 64 0 57 -4 -2 -9 2 -12 8 -2 7 -3 -23 -1 -67z"/>
<path d="M1060 3111 c0 -5 5 -13 10 -16 6 -3 10 -2 10 4 0 5 -4 13 -10 16 -5
3 -10 2 -10 -4z"/>
<path d="M2620 3110 c58 -11 138 -12 143 -2 3 4 -39 8 -92 8 -76 2 -87 0 -51
-6z"/>
<path d="M1636 3063 c-54 -46 -67 -63 -46 -63 27 0 121 92 107 106 -2 2 -30
-17 -61 -43z"/>
<path d="M4440 3075 c0 -14 2 -25 4 -25 2 0 6 11 8 25 3 14 1 25 -3 25 -5 0
-9 -11 -9 -25z"/>
<path d="M3380 3069 c0 -5 5 -7 10 -4 6 3 10 8 10 11 0 2 -4 4 -10 4 -5 0 -10
-5 -10 -11z"/>
<path d="M4655 3069 c-4 -6 -17 -14 -29 -19 -20 -8 -19 -9 6 -9 36 -1 81 17
73 29 -8 13 -42 13 -50 -1z"/>
<path d="M1072 3059 c2 -7 10 -15 17 -17 8 -3 12 1 9 9 -2 7 -10 15 -17 17 -8
3 -12 -1 -9 -9z"/>
<path d="M858 2943 c7 -3 16 -2 19 1 4 3 -2 6 -13 5 -11 0 -14 -3 -6 -6z"/>
<path d="M905 2937 c-5 -7 -11 -29 -12 -51 -2 -35 0 -36 12 -20 8 11 15 29 15
42 0 12 5 22 10 22 6 0 10 5 10 10 0 14 -23 12 -35 -3z"/>
<path d="M2392 2928 c-8 -10 -4 -13 14 -14 15 -1 24 4 24 12 0 17 -24 18 -38
2z"/>
<path d="M805 2910 c-3 -5 1 -10 9 -10 9 0 16 5 16 10 0 6 -4 10 -9 10 -6 0
-13 -4 -16 -10z"/>
<path d="M1035 2870 c-3 -5 -1 -10 4 -10 6 0 11 5 11 10 0 6 -2 10 -4 10 -3 0
-8 -4 -11 -10z"/>
<path d="M1180 2755 c0 -16 6 -25 15 -25 8 0 15 9 15 19 0 10 -7 21 -15 25
-11 4 -15 -1 -15 -19z"/>
<path d="M417 2399 c7 -7 15 -10 18 -7 3 3 -2 9 -12 12 -14 6 -15 5 -6 -5z"/>
<path d="M291 1983 c-1 -18 4 -23 22 -22 15 1 17 3 5 6 -9 2 -19 12 -21 21 -3
12 -5 10 -6 -5z"/>
<path d="M315 1930 c3 -5 -1 -10 -9 -10 -9 0 -16 -4 -16 -10 0 -5 5 -10 10
-10 6 0 10 -5 10 -11 0 -5 -4 -7 -10 -4 -5 3 -10 1 -10 -4 0 -6 6 -11 14 -11
19 0 39 -57 23 -64 -7 -2 -4 -5 6 -5 10 -1 15 -5 12 -11 -10 -16 -33 -12 -38
8 -3 9 -6 -10 -7 -43 -4 -100 1 -199 11 -217 7 -13 6 -18 -2 -18 -15 0 -6
-178 11 -210 8 -15 8 -20 1 -16 -12 8 -13 -10 -11 -133 1 -65 23 -190 49 -277
5 -18 17 -97 27 -178 17 -146 34 -184 34 -78 0 31 -4 95 -9 142 -6 47 -13 150
-16 230 -6 129 -9 169 -14 219 0 7 -7 11 -15 8 -12 -5 -12 0 -4 26 5 18 12 72
15 120 5 86 4 90 -22 117 -26 27 -26 28 -6 35 19 6 21 14 21 88 -1 104 -16
222 -33 256 -9 17 -11 36 -6 49 6 17 5 22 -7 22 -8 0 -12 -4 -9 -10z"/>
<path d="M1580 1857 c0 -52 2 -57 23 -57 46 0 52 15 21 56 -15 22 -32 43 -36
49 -4 5 -8 -17 -8 -48z"/>
<path d="M1843 1745 c0 -27 2 -38 4 -22 2 15 2 37 0 50 -2 12 -4 0 -4 -28z"/>
<path d="M1026 1735 c-6 -41 -21 -80 -44 -115 -2 -2 -7 2 -13 10 -7 11 -8 6
-3 -15 4 -16 8 -31 9 -32 1 -2 16 29 34 67 21 46 31 82 29 103 -3 28 -4 26
-12 -18z"/>
<path d="M1770 1770 c0 -5 4 -10 9 -10 5 0 11 -9 14 -21 5 -19 2 -21 -24 -17
-23 4 -29 1 -24 -9 3 -8 5 -17 5 -19 0 -2 16 -4 35 -4 30 0 35 3 35 23 0 42
-12 67 -31 67 -11 0 -19 -4 -19 -10z"/>
<path d="M1718 1758 c8 -9 20 -14 28 -11 16 6 19 23 4 23 -5 0 -10 -5 -10 -11
0 -8 -6 -7 -17 2 -16 13 -17 12 -5 -3z"/>
<path d="M940 1713 c0 -33 15 -60 24 -45 8 13 -4 72 -15 72 -5 0 -9 -12 -9
-27z"/>
<path d="M1598 1723 c7 -3 16 -2 19 1 4 3 -2 6 -13 5 -11 0 -14 -3 -6 -6z"/>
<path d="M1628 1707 c-58 -16 -49 -37 16 -37 73 0 89 7 75 31 -11 21 -33 22
-91 6z"/>
<path d="M1072 1663 c-26 -38 -34 -53 -29 -53 2 0 16 18 31 40 29 45 28 56 -2
13z"/>
<path d="M1810 1612 c0 -13 30 -52 41 -52 5 0 9 14 9 30 0 25 -4 30 -25 30
-14 0 -25 -3 -25 -8z"/>
<path d="M808 1393 c7 -3 16 -2 19 1 4 3 -2 6 -13 5 -11 0 -14 -3 -6 -6z"/>
<path d="M578 1383 c7 -3 16 -2 19 1 4 3 -2 6 -13 5 -11 0 -14 -3 -6 -6z"/>
<path d="M631 1320 c6 -16 15 -30 20 -30 13 0 11 34 -3 48 -21 21 -27 13 -17
-18z"/>
<path d="M413 1245 c0 -27 2 -38 4 -22 2 15 2 37 0 50 -2 12 -4 0 -4 -28z"/>
<path d="M2950 1240 c0 -5 5 -10 10 -10 6 0 10 5 10 10 0 6 -4 10 -10 10 -5 0
-10 -4 -10 -10z"/>
<path d="M532 1220 c0 -14 2 -19 5 -12 2 6 2 18 0 25 -3 6 -5 1 -5 -13z"/>
<path d="M2963 1027 c4 -103 11 -249 16 -325 6 -75 15 -227 21 -337 17 -324
21 -366 33 -362 12 4 15 87 3 105 -4 6 -6 31 -5 54 1 54 -10 256 -16 283 -7
33 -31 408 -40 639 -2 65 -7 121 -11 125 -4 3 -4 -78 -1 -182z"/>
<path d="M458 1153 c-3 -27 -1 -57 3 -68 4 -12 7 8 8 48 1 78 -5 89 -11 20z"/>
<path d="M3000 1151 c0 -17 2 -31 4 -31 8 0 13 51 5 56 -5 3 -9 -9 -9 -25z"/>
<path d="M421 1091 c0 -33 3 -51 8 -45 5 5 5 29 1 54 l-7 45 -2 -54z"/>
<path d="M602 1120 c0 -14 2 -19 5 -12 2 6 2 18 0 25 -3 6 -5 1 -5 -13z"/>
<path d="M3000 1100 c0 -5 5 -10 10 -10 6 0 10 5 10 10 0 6 -4 10 -10 10 -5 0
-10 -4 -10 -10z"/>
<path d="M1188 878 c4 -69 14 -98 33 -98 5 0 9 10 8 23 0 12 -3 16 -6 10 -11
-29 -18 -9 -18 50 0 67 -3 87 -15 87 -4 0 -5 -33 -2 -72z"/>
<path d="M321 924 c0 -11 3 -14 6 -6 3 7 2 16 -1 19 -3 4 -6 -2 -5 -13z"/>
<path d="M323 802 c-1 -15 1 -87 4 -159 5 -122 7 -133 24 -133 10 0 19 2 19 5
0 3 -7 50 -15 105 -8 56 -14 121 -13 146 1 48 -16 82 -19 36z"/>
<path d="M1416 804 c-9 -23 -4 -24 17 -2 13 14 14 18 3 18 -8 0 -17 -7 -20
-16z"/>
<path d="M560 706 c0 -3 9 -10 20 -16 11 -6 20 -8 20 -6 0 3 -9 10 -20 16 -11
6 -20 8 -20 6z"/>
<path d="M706 591 c-4 -7 -5 -15 -2 -18 9 -9 19 4 14 18 -4 11 -6 11 -12 0z"/>
<path d="M4820 558 c-26 -65 -34 -326 -10 -352 34 -36 56 52 64 249 3 74 1
101 -3 70 l-8 -50 -1 53 c-2 39 -6 52 -17 52 -9 0 -20 -10 -25 -22z m17 -40
c-3 -8 -6 -5 -6 6 -1 11 2 17 5 13 3 -3 4 -12 1 -19z"/>
<path d="M683 545 c-3 -9 -3 -19 1 -22 3 -4 0 -13 -8 -22 -15 -17 -16 -19 -16
-48 0 -14 -2 -15 -9 -4 -23 37 -64 -49 -62 -133 0 -33 3 -61 5 -63 2 -3 13 0
23 5 10 5 34 12 54 15 44 7 50 -16 7 -34 -15 -6 -25 -16 -21 -22 4 -6 1 -8 -8
-5 -8 3 -22 9 -31 13 -11 4 -18 3 -18 -5 0 -6 5 -8 10 -5 14 9 13 -8 -2 -23
-22 -22 -46 -14 -43 13 2 14 -1 23 -7 19 -5 -3 -7 -12 -4 -20 3 -8 1 -14 -4
-14 -5 0 -7 -7 -4 -15 4 -8 1 -15 -6 -15 -8 0 -11 -10 -7 -30 4 -16 3 -32 -2
-34 -14 -9 -20 -57 -7 -62 6 -2 42 -5 81 -8 38 -2 71 -9 73 -15 5 -15 55 -14
71 2 11 9 13 9 7 0 -5 -9 3 -13 28 -13 19 0 37 6 39 13 4 9 6 9 6 0 1 -7 14
-13 30 -13 31 0 39 11 36 48 -1 19 2 22 17 19 11 -3 22 1 25 9 3 8 16 14 28
14 35 0 37 14 5 33 -20 12 -31 14 -36 6 -4 -8 -9 -7 -15 2 -8 12 -11 12 -18
-1 -6 -8 -13 -12 -16 -8 -9 9 4 49 14 43 5 -2 6 6 4 19 -3 15 0 23 10 23 8 0
13 -5 11 -11 -5 -13 54 -15 76 -2 8 5 5 -2 -8 -15 -18 -20 -24 -21 -31 -10 -8
12 -12 11 -27 -4 -18 -18 -17 -18 31 -12 37 5 46 4 35 -4 -13 -9 -13 -10 0 -6
8 2 14 12 13 21 -1 16 0 16 16 -1 16 -17 16 -19 -3 -35 -12 -10 -16 -17 -8
-18 6 0 12 5 12 11 0 5 4 8 9 4 14 -8 42 24 34 38 -4 8 -1 7 9 -1 12 -9 18
-10 23 -2 4 7 16 10 26 7 12 -3 17 -1 12 6 -4 6 0 8 10 4 10 -3 17 -2 17 2 0
15 -27 20 -40 8 -10 -9 -11 -9 -6 0 11 19 -31 35 -91 35 -13 0 -21 4 -18 8 3
4 -2 11 -11 14 -9 4 -14 9 -11 12 3 3 14 1 25 -5 14 -8 21 -8 24 0 2 6 14 1
27 -10 22 -19 48 -20 36 -1 -3 5 0 12 7 16 7 4 10 4 6 -1 -4 -4 -3 -16 3 -27
9 -17 12 -17 31 -4 20 14 22 14 33 -7 9 -17 8 -27 -4 -47 -15 -22 -15 -24 2
-17 10 4 23 7 28 7 6 0 8 3 6 8 -3 4 17 7 44 7 27 0 49 -4 49 -10 0 -6 3 -5 8
1 11 17 51 36 62 29 5 -3 11 -1 15 5 3 5 -3 10 -14 10 -11 0 -32 5 -48 11
l-28 11 33 13 c31 14 47 43 17 31 -8 -3 -15 -1 -15 3 0 5 -7 12 -16 15 -12 4
-15 2 -10 -9 4 -10 -1 -15 -15 -15 -11 0 -17 -5 -14 -10 7 -11 -41 7 -62 23
-9 6 -13 6 -13 -1 0 -6 -7 -9 -15 -6 -8 4 -15 15 -15 26 0 14 -5 18 -16 14 -8
-3 -13 -2 -10 3 3 5 -8 14 -24 20 -17 5 -38 17 -47 26 -10 10 -18 13 -22 6 -4
-6 -12 -7 -21 -1 -22 14 -37 12 -44 -6 -5 -12 -2 -15 11 -10 18 7 113 -23 113
-36 0 -5 -9 -4 -19 2 -11 5 -37 12 -58 15 -52 8 -65 13 -58 24 3 5 1 12 -5 16
-5 3 -10 2 -10 -3 0 -5 -13 -9 -30 -10 -16 0 -30 3 -30 7 0 4 -19 18 -42 31
-24 12 -53 32 -65 43 -19 17 -23 18 -23 5 0 -9 -3 -24 -7 -33 -5 -14 -2 -16
16 -10 14 4 23 2 27 -9 3 -9 10 -13 15 -10 5 3 9 0 9 -5 0 -6 -5 -11 -12 -11
-6 0 -8 -3 -5 -6 4 -4 13 -1 21 5 15 12 56 7 56 -8 0 -4 -21 -20 -46 -36 -25
-16 -54 -41 -65 -57 -11 -16 -24 -26 -28 -23 -12 7 -54 -42 -46 -54 12 -20 25
-11 25 17 1 24 2 25 11 9 8 -14 8 -22 0 -30 -7 -7 -5 -14 7 -24 15 -13 15 -13
-4 -4 -14 7 -24 7 -31 0 -8 -8 -13 -7 -17 0 -4 6 -2 11 4 11 7 0 5 7 -4 16 -9
8 -16 18 -16 22 0 17 40 65 67 82 26 15 30 23 28 54 -4 39 -11 56 -26 56 -6 0
-7 -9 -4 -20 3 -11 2 -20 -3 -20 -17 0 -37 32 -35 54 3 20 2 20 -7 -1 -12 -28
-21 -29 -38 -3 -10 16 -10 25 0 43 7 12 13 24 13 27 3 9 25 63 31 71 3 5 -2 9
-11 9 -8 0 -18 -7 -22 -15z m-18 -145 c3 -5 1 -10 -4 -10 -6 0 -11 5 -11 10 0
6 2 10 4 10 3 0 8 -4 11 -10z m-50 -60 c3 -5 -1 -10 -10 -10 -9 0 -13 5 -10
10 3 6 8 10 10 10 2 0 7 -4 10 -10z m230 -143 c-2 -12 -2 -16 1 -9 10 20 22
13 22 -13 0 -22 -3 -24 -16 -13 -13 11 -15 10 -9 -4 3 -10 2 -20 -3 -23 -6 -4
-10 5 -10 19 0 29 -20 36 -21 9 0 -11 -3 -13 -6 -5 -2 6 -8 10 -13 7 -4 -3
-14 3 -21 12 -12 15 -12 16 4 10 9 -3 17 -2 17 3 0 6 -4 10 -10 10 -5 0 -10 5
-10 10 0 16 27 12 34 -5 3 -8 10 -15 17 -15 6 0 9 6 6 14 -7 17 2 28 15 20 5
-3 6 -15 3 -27z m48 22 c-6 -6 -9 -19 -6 -28 4 -13 2 -13 -7 2 -12 19 -6 37
13 37 8 0 8 -3 0 -11z m361 -5 c18 -18 21 -34 6 -34 -5 0 -10 7 -10 15 0 8 -9
15 -21 15 -11 0 -17 5 -14 10 9 14 21 12 39 -6z m-580 -31 c-3 -12 -13 -24
-21 -27 -8 -3 -11 -1 -8 4 3 6 0 10 -7 10 -7 1 -3 9 11 21 28 23 32 21 25 -8z
m-59 -13 c-3 -5 -12 -10 -18 -10 -7 0 -6 4 3 10 19 12 23 12 15 0z m132 -42
c-3 -8 -6 -5 -6 6 -1 11 2 17 5 13 3 -3 4 -12 1 -19z m233 -21 c0 -1 -13 -2
-29 -3 -23 -1 -26 2 -18 11 8 9 18 10 30 4 9 -6 17 -11 17 -12z m-236 -39 c-3
-4 -9 -8 -15 -8 -5 0 -9 4 -9 8 0 5 7 9 15 9 8 0 12 -4 9 -9z m-17 -50 c-3 -7
-5 -2 -5 12 0 14 2 19 5 13 2 -7 2 -19 0 -25z"/>
<path d="M737 545 c-4 -8 -2 -17 3 -20 6 -4 10 3 10 14 0 25 -6 27 -13 6z"/>
<path d="M637 493 c-11 -11 -8 -20 7 -20 8 0 12 6 9 14 -6 15 -7 15 -16 6z"/>
<path d="M231 456 c-6 -7 -8 -16 -4 -20 12 -12 12 -40 0 -48 -9 -6 -9 -8 1 -8
7 0 10 -5 7 -10 -4 -6 -15 -8 -26 -5 -13 4 -19 2 -19 -8 0 -19 22 -27 49 -20
18 5 21 13 21 64 0 60 -10 79 -29 55z"/>
<path d="M337 413 c4 -21 7 -60 7 -88 -2 -46 -1 -48 8 -20 6 17 17 37 25 46
19 22 7 64 -24 84 l-24 16 8 -38z"/>
<path d="M1488 405 c2 -14 6 -25 8 -25 2 0 4 11 4 25 0 14 -4 25 -9 25 -4 0
-6 -11 -3 -25z"/>
<path d="M1758 422 c-14 -3 -18 -14 -18 -48 0 -50 11 -55 52 -21 l27 22 -22
25 c-12 14 -30 24 -39 22z"/>
<path d="M1367 391 c-3 -13 -1 -18 9 -14 7 2 10 11 7 19 -7 19 -10 18 -16 -5z"/>
<path d="M1441 383 c-7 -8 -10 -17 -6 -21 4 -4 10 -1 12 6 3 6 9 10 14 6 5 -3
9 -1 9 5 0 17 -14 19 -29 4z"/>
<path d="M1267 364 c3 -7 9 -14 14 -14 14 0 10 17 -5 23 -10 4 -13 1 -9 -9z"/>
<path d="M1839 364 c-16 -19 -21 -44 -8 -44 5 0 18 9 30 21 16 16 23 18 34 9
8 -7 20 -8 27 -4 8 5 0 12 -23 20 -45 16 -44 16 -60 -2z"/>
<path d="M1186 361 c-4 -5 7 -16 24 -25 17 -8 28 -10 25 -5 -4 5 -2 9 4 9 5 0
11 -6 14 -12 3 -10 8 -10 16 -2 9 8 9 14 -1 22 -19 15 -76 24 -82 13z"/>
<path d="M1305 357 c-10 -8 -15 -19 -11 -25 4 -7 2 -12 -3 -12 -6 0 -11 -5
-11 -11 0 -11 11 -10 55 6 16 5 17 5 5 -4 -17 -12 -17 -12 25 -16 17 -1 33 2
37 8 9 14 -9 47 -25 47 -7 0 -6 -4 3 -10 11 -7 7 -10 -18 -10 -20 0 -31 4 -27
10 3 6 1 10 -5 10 -6 0 -8 5 -5 10 8 14 2 13 -20 -3z"/>
<path d="M1404 354 c3 -9 9 -27 12 -40 7 -26 34 -33 34 -9 0 8 4 15 10 15 11
0 34 39 27 47 -3 2 -15 -1 -27 -7 -16 -9 -25 -9 -33 -1 -16 16 -30 13 -23 -5z"/>
<path d="M820 339 c0 -5 5 -7 10 -4 6 3 10 8 10 11 0 2 -4 4 -10 4 -5 0 -10
-5 -10 -11z"/>
<path d="M1490 341 c0 -5 5 -13 10 -16 6 -3 10 -2 10 4 0 5 -4 13 -10 16 -5 3
-10 2 -10 -4z"/>
<path d="M1768 316 c-22 -16 -23 -59 -3 -76 20 -17 22 -14 30 43 8 49 2 56
-27 33z"/>
<path d="M1456 295 c-15 -14 -32 -23 -37 -20 -5 4 -9 1 -9 -5 0 -7 7 -10 15
-6 8 3 15 0 15 -6 0 -6 6 -5 17 3 11 10 14 10 9 2 -9 -16 6 -17 22 -1 16 16
16 42 0 32 -8 -5 -9 -2 -5 9 9 23 5 21 -27 -8z"/>
<path d="M1870 310 c-13 -8 -13 -10 2 -10 9 0 18 -6 20 -12 3 -9 9 -8 22 5 10
9 13 17 8 17 -6 0 -16 2 -24 5 -7 3 -20 0 -28 -5z"/>
<path d="M1720 296 c0 -9 5 -16 10 -16 6 0 10 4 10 9 0 6 -4 13 -10 16 -5 3
-10 -1 -10 -9z"/>
<path d="M1825 279 c20 -65 24 -71 39 -57 12 11 12 17 -2 42 -22 38 -47 48
-37 15z"/>
<path d="M1632 270 c13 -21 33 -26 42 -11 3 4 -6 13 -20 20 -34 15 -36 14 -22
-9z"/>
<path d="M1694 249 c-4 -7 -3 -9 4 -5 6 3 12 -2 14 -11 2 -12 6 -14 11 -7 4 7
0 17 -7 23 -11 9 -16 9 -22 0z"/>
<path d="M381 222 c-1 -13 -5 -21 -10 -18 -12 8 -22 -19 -28 -73 -4 -37 -3
-43 10 -38 9 3 18 -1 21 -9 3 -8 12 -14 20 -14 13 0 14 12 9 68 -6 72 -21 128
-22 84z"/>
<path d="M1156 211 c-3 -5 1 -12 10 -15 22 -8 25 -4 9 11 -8 7 -16 9 -19 4z"/>
<path d="M1 96 c0 -55 3 -95 6 -88 4 10 8 10 21 0 12 -10 14 -10 8 0 -9 16 9
16 34 0 17 -11 22 -10 30 2 7 11 12 12 18 4 4 -6 37 -12 75 -13 60 -1 67 1 67
18 0 22 -42 41 -48 22 -6 -18 -18 -13 -18 9 0 21 6 23 44 20 35 -2 26 16 -19
38 -42 21 -74 19 -65 -3 6 -17 -29 -49 -43 -40 -6 3 -11 1 -11 -4 0 -6 -5 -11
-10 -11 -7 0 -7 6 0 19 5 11 10 31 10 44 0 22 -3 25 -30 21 -24 -4 -29 -2 -24
10 3 9 10 16 16 16 5 0 8 8 6 17 -2 12 -14 18 -36 19 l-32 2 1 -102z m34 -26
c3 -5 1 -10 -4 -10 -6 0 -11 5 -11 10 0 6 2 10 4 10 3 0 8 -4 11 -10z"/>
<path d="M1456 192 c-3 -5 13 -8 35 -8 43 1 45 -2 52 -74 2 -23 4 -14 7 28 l5
62 -47 0 c-26 0 -49 -4 -52 -8z"/>
<path d="M1400 170 c0 -5 4 -10 9 -10 6 0 13 5 16 10 3 6 -1 10 -9 10 -9 0
-16 -4 -16 -10z"/>
<path d="M1846 170 c-16 -5 -17 -8 -4 -12 16 -7 45 7 32 14 -5 3 -18 2 -28 -2z"/>
<path d="M240 155 c-10 -12 -10 -15 4 -15 9 0 16 7 16 15 0 8 -2 15 -4 15 -2
0 -9 -7 -16 -15z"/>
<path d="M1890 156 c0 -2 7 -6 15 -10 8 -3 15 -1 15 4 0 6 -7 10 -15 10 -8 0
-15 -2 -15 -4z"/>
<path d="M120 120 c0 -11 5 -20 10 -20 6 0 10 9 10 20 0 11 -4 20 -10 20 -5 0
-10 -9 -10 -20z"/>
<path d="M1345 63 c11 -3 24 -9 30 -14 14 -14 25 -11 25 6 0 11 -10 15 -37 14
-22 -1 -29 -3 -18 -6z"/>
<path d="M1647 63 c-4 -3 -7 -11 -7 -17 0 -6 5 -5 12 2 6 6 9 14 7 17 -3 3 -9
2 -12 -2z"/>
<path d="M1065 50 c-3 -6 1 -7 9 -4 18 7 21 14 7 14 -6 0 -13 -4 -16 -10z"/>
<path d="M1183 45 c0 -5 -4 -18 -8 -27 -5 -14 -2 -18 11 -18 16 0 17 2 4 10
-17 11 -16 11 23 16 18 2 27 -2 27 -12 0 -8 10 -14 26 -14 21 0 25 4 22 22 -3
20 -11 24 -54 28 -31 3 -51 1 -51 -5z"/>
<path d="M1488 53 c7 -3 16 -2 19 1 4 3 -2 6 -13 5 -11 0 -14 -3 -6 -6z"/>
<path d="M1528 53 c10 -4 9 -9 -4 -24 -17 -19 -17 -20 1 -13 14 6 16 4 10 -7
-5 -9 -1 -8 10 3 21 19 13 48 -12 47 -12 0 -13 -2 -5 -6z"/>
<path d="M3548 37 c-21 -12 -38 -26 -38 -30 0 -4 28 -7 63 -5 59 3 62 4 62 28
0 34 -38 37 -87 7z"/>
<path d="M1320 26 c0 -21 5 -26 23 -25 18 1 18 2 4 6 -11 3 -16 11 -13 19 3 7
1 16 -4 19 -6 4 -10 -5 -10 -19z"/>
<path d="M343 22 c-1 -15 6 -19 33 -20 24 -1 34 3 34 13 0 8 -9 15 -19 15 -11
0 -26 2 -33 5 -8 3 -14 -2 -15 -13z"/>
<path d="M1390 10 c0 -6 18 -10 41 -10 22 0 38 4 35 8 -7 12 -76 13 -76 2z"/>
<path d="M1585 10 c3 -5 10 -10 16 -10 5 0 9 5 9 10 0 6 -7 10 -16 10 -8 0
-12 -4 -9 -10z"/>
</g>
</svg>
